<svg width="757" height="336" viewBox="0 0 757 336" fill="none" xmlns="http://www.w3.org/2000/svg">
<g clip-path="url(#clip0_15_146)" filter="url(#filter0_d_15_146)">
<rect width="717" height="296" rx="16" fill="url(#paint0_linear_15_146)"/>
<rect x="1" y="1" width="715" height="294" rx="15" stroke="#022D9A" stroke-opacity="0.9" stroke-width="2"/>
<path d="M32.2346 37.0823C32.2346 34.8732 34.0255 33.0823 36.2346 33.0823H54.3707C56.5798 33.0823 58.3707 34.8732 58.3707 37.0823V49.9412C58.3707 56.0163 53.4458 60.9412 47.3707 60.9412H43.2346C37.1595 60.9412 32.2346 56.0163 32.2346 49.9412V37.0823Z" fill="url(#paint1_linear_15_146)"/>
<path d="M33.2346 37.0823C33.2346 35.4255 34.5778 34.0823 36.2346 34.0823H54.3707C56.0276 34.0823 57.3707 35.4255 57.3707 37.0823V49.9412C57.3707 55.464 52.8936 59.9412 47.3707 59.9412H43.2346C37.7118 59.9412 33.2346 55.464 33.2346 49.9412V37.0823Z" stroke="#022D9A" stroke-opacity="0.9" stroke-width="2"/>
<path d="M32.2346 91.0588C32.2346 88.8497 34.0255 87.0588 36.2346 87.0588H54.3707C56.5798 87.0588 58.3707 88.8497 58.3707 91.0588V103.918C58.3707 109.993 53.4458 114.918 47.3707 114.918H43.2346C37.1595 114.918 32.2346 109.993 32.2346 103.918V91.0588Z" fill="url(#paint2_linear_15_146)"/>
<path d="M33.2346 91.0588C33.2346 89.402 34.5778 88.0588 36.2346 88.0588H54.3707C56.0276 88.0588 57.3707 89.402 57.3707 91.0588V103.918C57.3707 109.441 52.8936 113.918 47.3707 113.918H43.2346C37.7118 113.918 33.2346 109.441 33.2346 103.918V91.0588Z" stroke="#022D9A" stroke-opacity="0.9" stroke-width="2"/>
<path d="M68.825 91.0588C68.825 88.8497 70.6158 87.0588 72.825 87.0588H90.961C93.1702 87.0588 94.961 88.8497 94.961 91.0588V103.918C94.961 109.993 90.0362 114.918 83.961 114.918H79.8249C73.7498 114.918 68.825 109.993 68.825 103.918V91.0588Z" fill="url(#paint3_linear_15_146)"/>
<path d="M69.825 91.0588C69.825 89.402 71.1681 88.0588 72.825 88.0588H90.961C92.6179 88.0588 93.961 89.402 93.961 91.0588V103.918C93.961 109.441 89.4839 113.918 83.961 113.918H79.8249C74.3021 113.918 69.825 109.441 69.825 103.918V91.0588Z" stroke="#022D9A" stroke-opacity="0.9" stroke-width="2"/>
<path d="M87.9915 127.624C87.9915 125.414 89.7823 123.624 91.9915 123.624H110.128C112.337 123.624 114.128 125.414 114.128 127.624V140.482C114.128 146.557 109.203 151.482 103.128 151.482H98.9914C92.9163 151.482 87.9915 146.557 87.9915 140.482V127.624Z" fill="url(#paint4_linear_15_146)"/>
<path d="M88.9915 127.624C88.9915 125.967 90.3346 124.624 91.9915 124.624H110.128C111.784 124.624 113.128 125.967 113.128 127.624V140.482C113.128 146.005 108.65 150.482 103.128 150.482H98.9914C93.4686 150.482 88.9915 146.005 88.9915 140.482V127.624Z" stroke="#022D9A" stroke-opacity="0.9" stroke-width="2"/>
<path d="M123.711 127.624C123.711 125.414 125.502 123.624 127.711 123.624H145.847C148.056 123.624 149.847 125.414 149.847 127.624V140.482C149.847 146.557 144.922 151.482 138.847 151.482H134.711C128.636 151.482 123.711 146.557 123.711 140.482V127.624Z" fill="url(#paint5_linear_15_146)"/>
<path d="M124.711 127.624C124.711 125.967 126.054 124.624 127.711 124.624H145.847C147.504 124.624 148.847 125.967 148.847 127.624V140.482C148.847 146.005 144.37 150.482 138.847 150.482H134.711C129.188 150.482 124.711 146.005 124.711 140.482V127.624Z" stroke="#022D9A" stroke-opacity="0.9" stroke-width="2"/>
<path d="M159.43 127.624C159.43 125.414 161.221 123.624 163.43 123.624H181.566C183.775 123.624 185.566 125.414 185.566 127.624V140.482C185.566 146.557 180.641 151.482 174.566 151.482H170.43C164.355 151.482 159.43 146.557 159.43 140.482V127.624Z" fill="url(#paint6_linear_15_146)"/>
<path d="M160.43 127.624C160.43 125.967 161.773 124.624 163.43 124.624H181.566C183.223 124.624 184.566 125.967 184.566 127.624V140.482C184.566 146.005 180.089 150.482 174.566 150.482H170.43C164.907 150.482 160.43 146.005 160.43 140.482V127.624Z" stroke="#022D9A" stroke-opacity="0.9" stroke-width="2"/>
<path d="M195.149 127.624C195.149 125.414 196.94 123.624 199.149 123.624H217.285C219.495 123.624 221.285 125.414 221.285 127.624V140.482C221.285 146.557 216.361 151.482 210.285 151.482H206.149C200.074 151.482 195.149 146.557 195.149 140.482V127.624Z" fill="url(#paint7_linear_15_146)"/>
<path d="M196.149 127.624C196.149 125.967 197.493 124.624 199.149 124.624H217.285C218.942 124.624 220.285 125.967 220.285 127.624V140.482C220.285 146.005 215.808 150.482 210.285 150.482H206.149C200.627 150.482 196.149 146.005 196.149 140.482V127.624Z" stroke="#022D9A" stroke-opacity="0.9" stroke-width="2"/>
<path d="M230.869 127.624C230.869 125.414 232.66 123.624 234.869 123.624H253.005C255.214 123.624 257.005 125.414 257.005 127.624V140.482C257.005 146.557 252.08 151.482 246.005 151.482H241.869C235.794 151.482 230.869 146.557 230.869 140.482V127.624Z" fill="url(#paint8_linear_15_146)"/>
<path d="M231.869 127.624C231.869 125.967 233.212 124.624 234.869 124.624H253.005C254.662 124.624 256.005 125.967 256.005 127.624V140.482C256.005 146.005 251.528 150.482 246.005 150.482H241.869C236.346 150.482 231.869 146.005 231.869 140.482V127.624Z" stroke="#022D9A" stroke-opacity="0.9" stroke-width="2"/>
<path d="M266.588 127.624C266.588 125.414 268.379 123.624 270.588 123.624H288.724C290.933 123.624 292.724 125.414 292.724 127.624V140.482C292.724 146.557 287.799 151.482 281.724 151.482H277.588C271.513 151.482 266.588 146.557 266.588 140.482V127.624Z" fill="url(#paint9_linear_15_146)"/>
<path d="M267.588 127.624C267.588 125.967 268.931 124.624 270.588 124.624H288.724C290.381 124.624 291.724 125.967 291.724 127.624V140.482C291.724 146.005 287.247 150.482 281.724 150.482H277.588C272.065 150.482 267.588 146.005 267.588 140.482V127.624Z" stroke="#022D9A" stroke-opacity="0.9" stroke-width="2"/>
<path d="M302.307 127.624C302.307 125.414 304.098 123.624 306.307 123.624H324.443C326.653 123.624 328.443 125.414 328.443 127.624V140.482C328.443 146.557 323.519 151.482 317.443 151.482H313.307C307.232 151.482 302.307 146.557 302.307 140.482V127.624Z" fill="url(#paint10_linear_15_146)"/>
<path d="M303.307 127.624C303.307 125.967 304.651 124.624 306.307 124.624H324.443C326.1 124.624 327.443 125.967 327.443 127.624V140.482C327.443 146.005 322.966 150.482 317.443 150.482H313.307C307.785 150.482 303.307 146.005 303.307 140.482V127.624Z" stroke="#022D9A" stroke-opacity="0.9" stroke-width="2"/>
<path d="M96.7036 162.447C96.7036 160.238 98.4945 158.447 100.704 158.447H118.84C121.049 158.447 122.84 160.238 122.84 162.447V175.306C122.84 181.381 117.915 186.306 111.84 186.306H107.704C101.628 186.306 96.7036 181.381 96.7036 175.306V162.447Z" fill="url(#paint11_linear_15_146)"/>
<path d="M97.7036 162.447C97.7036 160.79 99.0468 159.447 100.704 159.447H118.84C120.497 159.447 121.84 160.79 121.84 162.447V175.306C121.84 180.829 117.363 185.306 111.84 185.306H107.704C102.181 185.306 97.7036 180.829 97.7036 175.306V162.447Z" stroke="#022D9A" stroke-opacity="0.9" stroke-width="2"/>
<path d="M132.423 162.447C132.423 160.238 134.214 158.447 136.423 158.447H154.559C156.768 158.447 158.559 160.238 158.559 162.447V175.306C158.559 181.381 153.634 186.306 147.559 186.306H143.423C137.348 186.306 132.423 181.381 132.423 175.306V162.447Z" fill="url(#paint12_linear_15_146)"/>
<path d="M133.423 162.447C133.423 160.79 134.766 159.447 136.423 159.447H154.559C156.216 159.447 157.559 160.79 157.559 162.447V175.306C157.559 180.829 153.082 185.306 147.559 185.306H143.423C137.9 185.306 133.423 180.829 133.423 175.306V162.447Z" stroke="#022D9A" stroke-opacity="0.9" stroke-width="2"/>
<path d="M168.142 162.447C168.142 160.238 169.933 158.447 172.142 158.447H190.278C192.487 158.447 194.278 160.238 194.278 162.447V175.306C194.278 181.381 189.353 186.306 183.278 186.306H179.142C173.067 186.306 168.142 181.381 168.142 175.306V162.447Z" fill="url(#paint13_linear_15_146)"/>
<path d="M169.142 162.447C169.142 160.79 170.485 159.447 172.142 159.447H190.278C191.935 159.447 193.278 160.79 193.278 162.447V175.306C193.278 180.829 188.801 185.306 183.278 185.306H179.142C173.619 185.306 169.142 180.829 169.142 175.306V162.447Z" stroke="#022D9A" stroke-opacity="0.9" stroke-width="2"/>
<path d="M203.862 162.447C203.862 160.238 205.652 158.447 207.862 158.447H225.998C228.207 158.447 229.998 160.238 229.998 162.447V175.306C229.998 181.381 225.073 186.306 218.998 186.306H214.862C208.786 186.306 203.862 181.381 203.862 175.306V162.447Z" fill="url(#paint14_linear_15_146)"/>
<path d="M204.862 162.447C204.862 160.79 206.205 159.447 207.862 159.447H225.998C227.655 159.447 228.998 160.79 228.998 162.447V175.306C228.998 180.829 224.521 185.306 218.998 185.306H214.862C209.339 185.306 204.862 180.829 204.862 175.306V162.447Z" stroke="#022D9A" stroke-opacity="0.9" stroke-width="2"/>
<path d="M239.581 162.447C239.581 160.238 241.372 158.447 243.581 158.447H261.717C263.926 158.447 265.717 160.238 265.717 162.447V175.306C265.717 181.381 260.792 186.306 254.717 186.306H250.581C244.506 186.306 239.581 181.381 239.581 175.306V162.447Z" fill="url(#paint15_linear_15_146)"/>
<path d="M240.581 162.447C240.581 160.79 241.924 159.447 243.581 159.447H261.717C263.374 159.447 264.717 160.79 264.717 162.447V175.306C264.717 180.829 260.24 185.306 254.717 185.306H250.581C245.058 185.306 240.581 180.829 240.581 175.306V162.447Z" stroke="#022D9A" stroke-opacity="0.9" stroke-width="2"/>
<path d="M275.3 162.447C275.3 160.238 277.091 158.447 279.3 158.447H297.436C299.645 158.447 301.436 160.238 301.436 162.447V175.306C301.436 181.381 296.511 186.306 290.436 186.306H286.3C280.225 186.306 275.3 181.381 275.3 175.306V162.447Z" fill="url(#paint16_linear_15_146)"/>
<path d="M276.3 162.447C276.3 160.79 277.643 159.447 279.3 159.447H297.436C299.093 159.447 300.436 160.79 300.436 162.447V175.306C300.436 180.829 295.959 185.306 290.436 185.306H286.3C280.777 185.306 276.3 180.829 276.3 175.306V162.447Z" stroke="#022D9A" stroke-opacity="0.9" stroke-width="2"/>
<path d="M311.02 162.447C311.02 160.238 312.81 158.447 315.02 158.447H333.156C335.365 158.447 337.156 160.238 337.156 162.447V175.306C337.156 181.381 332.231 186.306 326.156 186.306H322.02C315.944 186.306 311.02 181.381 311.02 175.306V162.447Z" fill="url(#paint17_linear_15_146)"/>
<path d="M312.02 162.447C312.02 160.79 313.363 159.447 315.02 159.447H333.156C334.812 159.447 336.156 160.79 336.156 162.447V175.306C336.156 180.829 331.678 185.306 326.156 185.306H322.02C316.497 185.306 312.02 180.829 312.02 175.306V162.447Z" stroke="#022D9A" stroke-opacity="0.9" stroke-width="2"/>
<path d="M114.128 199.012C114.128 196.803 115.919 195.012 118.128 195.012H136.264C138.473 195.012 140.264 196.803 140.264 199.012V211.871C140.264 217.946 135.339 222.871 129.264 222.871H125.128C119.053 222.871 114.128 217.946 114.128 211.871V199.012Z" fill="url(#paint18_linear_15_146)"/>
<path d="M115.128 199.012C115.128 197.355 116.471 196.012 118.128 196.012H136.264C137.921 196.012 139.264 197.355 139.264 199.012V211.871C139.264 217.393 134.787 221.871 129.264 221.871H125.128C119.605 221.871 115.128 217.393 115.128 211.871V199.012Z" stroke="#022D9A" stroke-opacity="0.9" stroke-width="2"/>
<path d="M149.847 199.012C149.847 196.803 151.638 195.012 153.847 195.012H171.983C174.192 195.012 175.983 196.803 175.983 199.012V211.871C175.983 217.946 171.058 222.871 164.983 222.871H160.847C154.772 222.871 149.847 217.946 149.847 211.871V199.012Z" fill="url(#paint19_linear_15_146)"/>
<path d="M150.847 199.012C150.847 197.355 152.19 196.012 153.847 196.012H171.983C173.64 196.012 174.983 197.355 174.983 199.012V211.871C174.983 217.393 170.506 221.871 164.983 221.871H160.847C155.324 221.871 150.847 217.393 150.847 211.871V199.012Z" stroke="#022D9A" stroke-opacity="0.9" stroke-width="2"/>
<path d="M185.566 199.012C185.566 196.803 187.357 195.012 189.566 195.012H207.702C209.911 195.012 211.702 196.803 211.702 199.012V211.871C211.702 217.946 206.777 222.871 200.702 222.871H196.566C190.491 222.871 185.566 217.946 185.566 211.871V199.012Z" fill="url(#paint20_linear_15_146)"/>
<path d="M186.566 199.012C186.566 197.355 187.909 196.012 189.566 196.012H207.702C209.359 196.012 210.702 197.355 210.702 199.012V211.871C210.702 217.393 206.225 221.871 200.702 221.871H196.566C191.043 221.871 186.566 217.393 186.566 211.871V199.012Z" stroke="#022D9A" stroke-opacity="0.9" stroke-width="2"/>
<path d="M221.286 199.012C221.286 196.803 223.077 195.012 225.286 195.012H243.422C245.631 195.012 247.422 196.803 247.422 199.012V211.871C247.422 217.946 242.497 222.871 236.422 222.871H232.286C226.211 222.871 221.286 217.946 221.286 211.871V199.012Z" fill="url(#paint21_linear_15_146)"/>
<path d="M222.286 199.012C222.286 197.355 223.629 196.012 225.286 196.012H243.422C245.079 196.012 246.422 197.355 246.422 199.012V211.871C246.422 217.393 241.945 221.871 236.422 221.871H232.286C226.763 221.871 222.286 217.393 222.286 211.871V199.012Z" stroke="#022D9A" stroke-opacity="0.9" stroke-width="2"/>
<path d="M257.005 199.012C257.005 196.803 258.796 195.012 261.005 195.012H279.141C281.35 195.012 283.141 196.803 283.141 199.012V211.871C283.141 217.946 278.216 222.871 272.141 222.871H268.005C261.93 222.871 257.005 217.946 257.005 211.871V199.012Z" fill="url(#paint22_linear_15_146)"/>
<path d="M258.005 199.012C258.005 197.355 259.348 196.012 261.005 196.012H279.141C280.798 196.012 282.141 197.355 282.141 199.012V211.871C282.141 217.393 277.664 221.871 272.141 221.871H268.005C262.482 221.871 258.005 217.393 258.005 211.871V199.012Z" stroke="#022D9A" stroke-opacity="0.9" stroke-width="2"/>
<path d="M292.724 199.012C292.724 196.803 294.515 195.012 296.724 195.012H314.86C317.069 195.012 318.86 196.803 318.86 199.012V211.871C318.86 217.946 313.935 222.871 307.86 222.871H303.724C297.649 222.871 292.724 217.946 292.724 211.871V199.012Z" fill="url(#paint23_linear_15_146)"/>
<path d="M293.724 199.012C293.724 197.355 295.067 196.012 296.724 196.012H314.86C316.517 196.012 317.86 197.355 317.86 199.012V211.871C317.86 217.393 313.383 221.871 307.86 221.871H303.724C298.201 221.871 293.724 217.393 293.724 211.871V199.012Z" stroke="#022D9A" stroke-opacity="0.9" stroke-width="2"/>
<path d="M328.444 199.012C328.444 196.803 330.234 195.012 332.444 195.012H350.58C352.789 195.012 354.58 196.803 354.58 199.012V211.871C354.58 217.946 349.655 222.871 343.58 222.871H339.444C333.368 222.871 328.444 217.946 328.444 211.871V199.012Z" fill="url(#paint24_linear_15_146)"/>
<path d="M329.444 199.012C329.444 197.355 330.787 196.012 332.444 196.012H350.58C352.237 196.012 353.58 197.355 353.58 199.012V211.871C353.58 217.393 349.103 221.871 343.58 221.871H339.444C333.921 221.871 329.444 217.393 329.444 211.871V199.012Z" stroke="#022D9A" stroke-opacity="0.9" stroke-width="2"/>
<path d="M338.027 127.624C338.027 125.414 339.818 123.624 342.027 123.624H360.163C362.372 123.624 364.163 125.414 364.163 127.624V140.482C364.163 146.557 359.238 151.482 353.163 151.482H349.027C342.952 151.482 338.027 146.557 338.027 140.482V127.624Z" fill="url(#paint25_linear_15_146)"/>
<path d="M339.027 127.624C339.027 125.967 340.37 124.624 342.027 124.624H360.163C361.82 124.624 363.163 125.967 363.163 127.624V140.482C363.163 146.005 358.686 150.482 353.163 150.482H349.027C343.504 150.482 339.027 146.005 339.027 140.482V127.624Z" stroke="#022D9A" stroke-opacity="0.9" stroke-width="2"/>
<path d="M373.746 127.624C373.746 125.414 375.537 123.624 377.746 123.624H395.882C398.091 123.624 399.882 125.414 399.882 127.624V140.482C399.882 146.557 394.957 151.482 388.882 151.482H384.746C378.671 151.482 373.746 146.557 373.746 140.482V127.624Z" fill="url(#paint26_linear_15_146)"/>
<path d="M374.746 127.624C374.746 125.967 376.089 124.624 377.746 124.624H395.882C397.539 124.624 398.882 125.967 398.882 127.624V140.482C398.882 146.005 394.405 150.482 388.882 150.482H384.746C379.223 150.482 374.746 146.005 374.746 140.482V127.624Z" stroke="#022D9A" stroke-opacity="0.9" stroke-width="2"/>
<path d="M409.465 127.624C409.465 125.414 411.256 123.624 413.465 123.624H431.601C433.811 123.624 435.601 125.414 435.601 127.624V140.482C435.601 146.557 430.677 151.482 424.601 151.482H420.465C414.39 151.482 409.465 146.557 409.465 140.482V127.624Z" fill="url(#paint27_linear_15_146)"/>
<path d="M410.465 127.624C410.465 125.967 411.808 124.624 413.465 124.624H431.601C433.258 124.624 434.601 125.967 434.601 127.624V140.482C434.601 146.005 430.124 150.482 424.601 150.482H420.465C414.942 150.482 410.465 146.005 410.465 140.482V127.624Z" stroke="#022D9A" stroke-opacity="0.9" stroke-width="2"/>
<path d="M445.185 127.624C445.185 125.414 446.975 123.624 449.185 123.624H467.321C469.53 123.624 471.321 125.414 471.321 127.624V140.482C471.321 146.557 466.396 151.482 460.321 151.482H456.185C450.109 151.482 445.185 146.557 445.185 140.482V127.624Z" fill="url(#paint28_linear_15_146)"/>
<path d="M446.185 127.624C446.185 125.967 447.528 124.624 449.185 124.624H467.321C468.977 124.624 470.321 125.967 470.321 127.624V140.482C470.321 146.005 465.843 150.482 460.321 150.482H456.185C450.662 150.482 446.185 146.005 446.185 140.482V127.624Z" stroke="#022D9A" stroke-opacity="0.9" stroke-width="2"/>
<path d="M347.61 162.447C347.61 160.238 349.401 158.447 351.61 158.447H369.746C371.955 158.447 373.746 160.238 373.746 162.447V175.306C373.746 181.381 368.821 186.306 362.746 186.306H358.61C352.535 186.306 347.61 181.381 347.61 175.306V162.447Z" fill="url(#paint29_linear_15_146)"/>
<path d="M348.61 162.447C348.61 160.79 349.953 159.447 351.61 159.447H369.746C371.403 159.447 372.746 160.79 372.746 162.447V175.306C372.746 180.829 368.269 185.306 362.746 185.306H358.61C353.087 185.306 348.61 180.829 348.61 175.306V162.447Z" stroke="#022D9A" stroke-opacity="0.9" stroke-width="2"/>
<path d="M383.329 162.447C383.329 160.238 385.12 158.447 387.329 158.447H405.465C407.675 158.447 409.465 160.238 409.465 162.447V175.306C409.465 181.381 404.541 186.306 398.465 186.306H394.329C388.254 186.306 383.329 181.381 383.329 175.306V162.447Z" fill="url(#paint30_linear_15_146)"/>
<path d="M384.329 162.447C384.329 160.79 385.672 159.447 387.329 159.447H405.465C407.122 159.447 408.465 160.79 408.465 162.447V175.306C408.465 180.829 403.988 185.306 398.465 185.306H394.329C388.807 185.306 384.329 180.829 384.329 175.306V162.447Z" stroke="#022D9A" stroke-opacity="0.9" stroke-width="2"/>
<path d="M419.049 162.447C419.049 160.238 420.839 158.447 423.049 158.447H441.185C443.394 158.447 445.185 160.238 445.185 162.447V175.306C445.185 181.381 440.26 186.306 434.185 186.306H430.049C423.973 186.306 419.049 181.381 419.049 175.306V162.447Z" fill="url(#paint31_linear_15_146)"/>
<path d="M420.049 162.447C420.049 160.79 421.392 159.447 423.049 159.447H441.185C442.842 159.447 444.185 160.79 444.185 162.447V175.306C444.185 180.829 439.708 185.306 434.185 185.306H430.049C424.526 185.306 420.049 180.829 420.049 175.306V162.447Z" stroke="#022D9A" stroke-opacity="0.9" stroke-width="2"/>
<path d="M454.768 162.447C454.768 160.238 456.559 158.447 458.768 158.447H476.904C479.113 158.447 480.904 160.238 480.904 162.447V175.306C480.904 181.381 475.979 186.306 469.904 186.306H465.768C459.693 186.306 454.768 181.381 454.768 175.306V162.447Z" fill="url(#paint32_linear_15_146)"/>
<path d="M455.768 162.447C455.768 160.79 457.111 159.447 458.768 159.447H476.904C478.561 159.447 479.904 160.79 479.904 162.447V175.306C479.904 180.829 475.427 185.306 469.904 185.306H465.768C460.245 185.306 455.768 180.829 455.768 175.306V162.447Z" stroke="#022D9A" stroke-opacity="0.9" stroke-width="2"/>
<path d="M367.648 199.012C367.648 196.803 369.439 195.012 371.648 195.012H389.784C391.993 195.012 393.784 196.803 393.784 199.012V211.871C393.784 217.946 388.859 222.871 382.784 222.871H378.648C372.573 222.871 367.648 217.946 367.648 211.871V199.012Z" fill="url(#paint33_linear_15_146)"/>
<path d="M368.648 199.012C368.648 197.355 369.991 196.012 371.648 196.012H389.784C391.441 196.012 392.784 197.355 392.784 199.012V211.871C392.784 217.393 388.307 221.871 382.784 221.871H378.648C373.125 221.871 368.648 217.393 368.648 211.871V199.012Z" stroke="#022D9A" stroke-opacity="0.9" stroke-width="2"/>
<path d="M403.367 199.012C403.367 196.803 405.158 195.012 407.367 195.012H425.503C427.712 195.012 429.503 196.803 429.503 199.012V211.871C429.503 217.946 424.578 222.871 418.503 222.871H414.367C408.292 222.871 403.367 217.946 403.367 211.871V199.012Z" fill="url(#paint34_linear_15_146)"/>
<path d="M404.367 199.012C404.367 197.355 405.71 196.012 407.367 196.012H425.503C427.16 196.012 428.503 197.355 428.503 199.012V211.871C428.503 217.393 424.026 221.871 418.503 221.871H414.367C408.844 221.871 404.367 217.393 404.367 211.871V199.012Z" stroke="#022D9A" stroke-opacity="0.9" stroke-width="2"/>
<path d="M439.086 199.012C439.086 196.803 440.877 195.012 443.086 195.012H461.222C463.431 195.012 465.222 196.803 465.222 199.012V211.871C465.222 217.946 460.297 222.871 454.222 222.871H450.086C444.011 222.871 439.086 217.946 439.086 211.871V199.012Z" fill="url(#paint35_linear_15_146)"/>
<path d="M440.086 199.012C440.086 197.355 441.429 196.012 443.086 196.012H461.222C462.879 196.012 464.222 197.355 464.222 199.012V211.871C464.222 217.393 459.745 221.871 454.222 221.871H450.086C444.563 221.871 440.086 217.393 440.086 211.871V199.012Z" stroke="#022D9A" stroke-opacity="0.9" stroke-width="2"/>
<path d="M480.904 127.624C480.904 125.414 482.695 123.624 484.904 123.624H503.04C505.249 123.624 507.04 125.414 507.04 127.624V140.482C507.04 146.557 502.115 151.482 496.04 151.482H491.904C485.829 151.482 480.904 146.557 480.904 140.482V127.624Z" fill="url(#paint36_linear_15_146)"/>
<path d="M481.904 127.624C481.904 125.967 483.247 124.624 484.904 124.624H503.04C504.697 124.624 506.04 125.967 506.04 127.624V140.482C506.04 146.005 501.563 150.482 496.04 150.482H491.904C486.381 150.482 481.904 146.005 481.904 140.482V127.624Z" stroke="#022D9A" stroke-opacity="0.9" stroke-width="2"/>
<path d="M105.416 91.0588C105.416 88.8497 107.206 87.0588 109.416 87.0588H127.552C129.761 87.0588 131.552 88.8497 131.552 91.0588V103.918C131.552 109.993 126.627 114.918 120.552 114.918H116.416C110.34 114.918 105.416 109.993 105.416 103.918V91.0588Z" fill="url(#paint37_linear_15_146)"/>
<path d="M106.416 91.0588C106.416 89.402 107.759 88.0588 109.416 88.0588H127.552C129.208 88.0588 130.552 89.402 130.552 91.0588V103.918C130.552 109.441 126.074 113.918 120.552 113.918H116.416C110.893 113.918 106.416 109.441 106.416 103.918V91.0588Z" stroke="#022D9A" stroke-opacity="0.9" stroke-width="2"/>
<path d="M142.006 91.0588C142.006 88.8497 143.797 87.0588 146.006 87.0588H164.142C166.351 87.0588 168.142 88.8497 168.142 91.0588V103.918C168.142 109.993 163.217 114.918 157.142 114.918H153.006C146.931 114.918 142.006 109.993 142.006 103.918V91.0588Z" fill="url(#paint38_linear_15_146)"/>
<path d="M143.006 91.0588C143.006 89.402 144.349 88.0588 146.006 88.0588H164.142C165.799 88.0588 167.142 89.402 167.142 91.0588V103.918C167.142 109.441 162.665 113.918 157.142 113.918H153.006C147.483 113.918 143.006 109.441 143.006 103.918V91.0588Z" stroke="#022D9A" stroke-opacity="0.9" stroke-width="2"/>
<path d="M178.597 91.0588C178.597 88.8497 180.388 87.0588 182.597 87.0588H200.733C202.942 87.0588 204.733 88.8497 204.733 91.0588V103.918C204.733 109.993 199.808 114.918 193.733 114.918H189.597C183.522 114.918 178.597 109.993 178.597 103.918V91.0588Z" fill="url(#paint39_linear_15_146)"/>
<path d="M179.597 91.0588C179.597 89.402 180.94 88.0588 182.597 88.0588H200.733C202.39 88.0588 203.733 89.402 203.733 91.0588V103.918C203.733 109.441 199.256 113.918 193.733 113.918H189.597C184.074 113.918 179.597 109.441 179.597 103.918V91.0588Z" stroke="#022D9A" stroke-opacity="0.9" stroke-width="2"/>
<path d="M215.187 91.0588C215.187 88.8497 216.978 87.0588 219.187 87.0588H237.323C239.532 87.0588 241.323 88.8497 241.323 91.0588V103.918C241.323 109.993 236.398 114.918 230.323 114.918H226.187C220.112 114.918 215.187 109.993 215.187 103.918V91.0588Z" fill="url(#paint40_linear_15_146)"/>
<path d="M216.187 91.0588C216.187 89.402 217.53 88.0588 219.187 88.0588H237.323C238.98 88.0588 240.323 89.402 240.323 91.0588V103.918C240.323 109.441 235.846 113.918 230.323 113.918H226.187C220.664 113.918 216.187 109.441 216.187 103.918V91.0588Z" stroke="#022D9A" stroke-opacity="0.9" stroke-width="2"/>
<path d="M251.778 91.0588C251.778 88.8497 253.568 87.0588 255.778 87.0588H273.914C276.123 87.0588 277.914 88.8497 277.914 91.0588V103.918C277.914 109.993 272.989 114.918 266.914 114.918H262.778C256.702 114.918 251.778 109.993 251.778 103.918V91.0588Z" fill="url(#paint41_linear_15_146)"/>
<path d="M252.778 91.0588C252.778 89.402 254.121 88.0588 255.778 88.0588H273.914C275.571 88.0588 276.914 89.402 276.914 91.0588V103.918C276.914 109.441 272.437 113.918 266.914 113.918H262.778C257.255 113.918 252.778 109.441 252.778 103.918V91.0588Z" stroke="#022D9A" stroke-opacity="0.9" stroke-width="2"/>
<path d="M288.368 91.0588C288.368 88.8497 290.159 87.0588 292.368 87.0588H310.504C312.713 87.0588 314.504 88.8497 314.504 91.0588V103.918C314.504 109.993 309.579 114.918 303.504 114.918H299.368C293.293 114.918 288.368 109.993 288.368 103.918V91.0588Z" fill="url(#paint42_linear_15_146)"/>
<path d="M289.368 91.0588C289.368 89.402 290.711 88.0588 292.368 88.0588H310.504C312.161 88.0588 313.504 89.402 313.504 91.0588V103.918C313.504 109.441 309.027 113.918 303.504 113.918H299.368C293.845 113.918 289.368 109.441 289.368 103.918V91.0588Z" stroke="#022D9A" stroke-opacity="0.9" stroke-width="2"/>
<path d="M324.959 91.0588C324.959 88.8497 326.75 87.0588 328.959 87.0588H347.095C349.304 87.0588 351.095 88.8497 351.095 91.0588V103.918C351.095 109.993 346.17 114.918 340.095 114.918H335.959C329.884 114.918 324.959 109.993 324.959 103.918V91.0588Z" fill="url(#paint43_linear_15_146)"/>
<path d="M325.959 91.0588C325.959 89.402 327.302 88.0588 328.959 88.0588H347.095C348.752 88.0588 350.095 89.402 350.095 91.0588V103.918C350.095 109.441 345.618 113.918 340.095 113.918H335.959C330.436 113.918 325.959 109.441 325.959 103.918V91.0588Z" stroke="#022D9A" stroke-opacity="0.9" stroke-width="2"/>
<path d="M361.549 91.0588C361.549 88.8497 363.34 87.0588 365.549 87.0588H383.685C385.895 87.0588 387.685 88.8497 387.685 91.0588V103.918C387.685 109.993 382.761 114.918 376.685 114.918H372.549C366.474 114.918 361.549 109.993 361.549 103.918V91.0588Z" fill="url(#paint44_linear_15_146)"/>
<path d="M362.549 91.0588C362.549 89.402 363.892 88.0588 365.549 88.0588H383.685C385.342 88.0588 386.685 89.402 386.685 91.0588V103.918C386.685 109.441 382.208 113.918 376.685 113.918H372.549C367.026 113.918 362.549 109.441 362.549 103.918V91.0588Z" stroke="#022D9A" stroke-opacity="0.9" stroke-width="2"/>
<path d="M398.14 91.0588C398.14 88.8497 399.931 87.0588 402.14 87.0588H420.276C422.485 87.0588 424.276 88.8497 424.276 91.0588V103.918C424.276 109.993 419.351 114.918 413.276 114.918H409.14C403.065 114.918 398.14 109.993 398.14 103.918V91.0588Z" fill="url(#paint45_linear_15_146)"/>
<path d="M399.14 91.0588C399.14 89.402 400.483 88.0588 402.14 88.0588H420.276C421.933 88.0588 423.276 89.402 423.276 91.0588V103.918C423.276 109.441 418.799 113.918 413.276 113.918H409.14C403.617 113.918 399.14 109.441 399.14 103.918V91.0588Z" stroke="#022D9A" stroke-opacity="0.9" stroke-width="2"/>
<path d="M434.73 91.0588C434.73 88.8497 436.521 87.0588 438.73 87.0588H456.866C459.075 87.0588 460.866 88.8497 460.866 91.0588V103.918C460.866 109.993 455.941 114.918 449.866 114.918H445.73C439.655 114.918 434.73 109.993 434.73 103.918V91.0588Z" fill="url(#paint46_linear_15_146)"/>
<path d="M435.73 91.0588C435.73 89.402 437.073 88.0588 438.73 88.0588H456.866C458.523 88.0588 459.866 89.402 459.866 91.0588V103.918C459.866 109.441 455.389 113.918 449.866 113.918H445.73C440.207 113.918 435.73 109.441 435.73 103.918V91.0588Z" stroke="#022D9A" stroke-opacity="0.9" stroke-width="2"/>
<path d="M471.321 91.0588C471.321 88.8497 473.112 87.0588 475.321 87.0588H493.457C495.666 87.0588 497.457 88.8497 497.457 91.0588V103.918C497.457 109.993 492.532 114.918 486.457 114.918H482.321C476.246 114.918 471.321 109.993 471.321 103.918V91.0588Z" fill="url(#paint47_linear_15_146)"/>
<path d="M472.321 91.0588C472.321 89.402 473.664 88.0588 475.321 88.0588H493.457C495.114 88.0588 496.457 89.402 496.457 91.0588V103.918C496.457 109.441 491.98 113.918 486.457 113.918H482.321C476.798 113.918 472.321 109.441 472.321 103.918V91.0588Z" stroke="#022D9A" stroke-opacity="0.9" stroke-width="2"/>
<path d="M507.911 91.0588C507.911 88.8497 509.702 87.0588 511.911 87.0588H565.767C567.976 87.0588 569.767 88.8497 569.767 91.0588V103.918C569.767 109.993 564.842 114.918 558.767 114.918H518.911C512.836 114.918 507.911 109.993 507.911 103.918V91.0588Z" fill="url(#paint48_linear_15_146)"/>
<path d="M508.911 91.0588C508.911 89.402 510.255 88.0588 511.911 88.0588H565.767C567.424 88.0588 568.767 89.402 568.767 91.0588V103.918C568.767 109.441 564.29 113.918 558.767 113.918H518.911C513.389 113.918 508.911 109.441 508.911 103.918V91.0588Z" stroke="#022D9A" stroke-opacity="0.9" stroke-width="2"/>
<path d="M525.335 125.882C525.335 123.673 527.126 121.882 529.335 121.882H565.767C567.976 121.882 569.767 123.673 569.767 125.882V138.741C569.767 144.816 564.842 149.741 558.767 149.741H536.335C530.26 149.741 525.335 144.816 525.335 138.741V125.882Z" fill="url(#paint49_linear_15_146)"/>
<path d="M526.335 125.882C526.335 124.226 527.679 122.882 529.335 122.882H565.767C567.424 122.882 568.767 124.225 568.767 125.882V138.741C568.767 144.264 564.29 148.741 558.767 148.741H536.335C530.813 148.741 526.335 144.264 526.335 138.741V125.882Z" stroke="#022D9A" stroke-opacity="0.9" stroke-width="2"/>
<path d="M499.199 163.318C499.199 161.109 500.99 159.318 503.199 159.318H565.767C567.976 159.318 569.767 161.109 569.767 163.318V176.176C569.767 182.252 564.842 187.176 558.767 187.176H510.199C504.124 187.176 499.199 182.252 499.199 176.176V163.318Z" fill="url(#paint50_linear_15_146)"/>
<path d="M500.199 163.318C500.199 161.661 501.542 160.318 503.199 160.318H565.767C567.424 160.318 568.767 161.661 568.767 163.318V176.176C568.767 181.699 564.29 186.176 558.767 186.176H510.199C504.676 186.176 500.199 181.699 500.199 176.176V163.318Z" stroke="#022D9A" stroke-opacity="0.9" stroke-width="2"/>
<path d="M480.033 200.753C480.033 198.544 481.824 196.753 484.033 196.753H565.767C567.976 196.753 569.767 198.544 569.767 200.753V213.612C569.767 219.687 564.842 224.612 558.767 224.612H491.033C484.958 224.612 480.033 219.687 480.033 213.612V200.753Z" fill="url(#paint51_linear_15_146)"/>
<path d="M481.033 200.753C481.033 199.096 482.376 197.753 484.033 197.753H565.767C567.423 197.753 568.767 199.096 568.767 200.753V213.612C568.767 219.135 564.289 223.612 558.767 223.612H491.033C485.51 223.612 481.033 219.135 481.033 213.612V200.753Z" stroke="#022D9A" stroke-opacity="0.9" stroke-width="2"/>
<path d="M535.79 236.447C535.79 234.238 537.581 232.447 539.79 232.447H565.767C567.976 232.447 569.767 234.238 569.767 236.447V249.306C569.767 255.381 564.842 260.306 558.767 260.306H546.79C540.715 260.306 535.79 255.381 535.79 249.306V236.447Z" fill="url(#paint52_linear_15_146)"/>
<path d="M536.79 236.447C536.79 234.79 538.133 233.447 539.79 233.447H565.767C567.424 233.447 568.767 234.79 568.767 236.447V249.306C568.767 254.829 564.29 259.306 558.767 259.306H546.79C541.267 259.306 536.79 254.829 536.79 249.306V236.447Z" stroke="#022D9A" stroke-opacity="0.9" stroke-width="2"/>
<path d="M490.487 236.447C490.487 234.238 492.278 232.447 494.487 232.447H520.464C522.673 232.447 524.464 234.238 524.464 236.447V249.306C524.464 255.381 519.539 260.306 513.464 260.306H501.487C495.412 260.306 490.487 255.381 490.487 249.306V236.447Z" fill="url(#paint53_linear_15_146)"/>
<path d="M491.487 236.447C491.487 234.79 492.83 233.447 494.487 233.447H520.464C522.121 233.447 523.464 234.79 523.464 236.447V249.306C523.464 254.829 518.987 259.306 513.464 259.306H501.487C495.964 259.306 491.487 254.829 491.487 249.306V236.447Z" stroke="#022D9A" stroke-opacity="0.9" stroke-width="2"/>
<path d="M445.185 236.447C445.185 234.238 446.975 232.447 449.185 232.447H475.161C477.371 232.447 479.161 234.238 479.161 236.447V249.306C479.161 255.381 474.237 260.306 468.161 260.306H456.185C450.109 260.306 445.185 255.381 445.185 249.306V236.447Z" fill="url(#paint54_linear_15_146)"/>
<path d="M446.185 236.447C446.185 234.79 447.528 233.447 449.185 233.447H475.161C476.818 233.447 478.161 234.79 478.161 236.447V249.306C478.161 254.829 473.684 259.306 468.161 259.306H456.185C450.662 259.306 446.185 254.829 446.185 249.306V236.447Z" stroke="#022D9A" stroke-opacity="0.9" stroke-width="2"/>
<path d="M399.882 236.447C399.882 234.238 401.673 232.447 403.882 232.447H429.859C432.068 232.447 433.859 234.238 433.859 236.447V249.306C433.859 255.381 428.934 260.306 422.859 260.306H410.882C404.807 260.306 399.882 255.381 399.882 249.306V236.447Z" fill="url(#paint55_linear_15_146)"/>
<path d="M400.882 236.447C400.882 234.79 402.225 233.447 403.882 233.447H429.859C431.516 233.447 432.859 234.79 432.859 236.447V249.306C432.859 254.829 428.382 259.306 422.859 259.306H410.882C405.359 259.306 400.882 254.829 400.882 249.306V236.447Z" stroke="#022D9A" stroke-opacity="0.9" stroke-width="2"/>
<path d="M170.756 236.447C170.756 234.238 172.547 232.447 174.756 232.447H384.557C386.766 232.447 388.557 234.238 388.557 236.447V249.306C388.557 255.381 383.632 260.306 377.557 260.306H181.756C175.681 260.306 170.756 255.381 170.756 249.306V236.447Z" fill="url(#paint56_linear_15_146)"/>
<path d="M171.756 236.447C171.756 234.79 173.099 233.447 174.756 233.447H384.557C386.213 233.447 387.557 234.79 387.557 236.447V249.306C387.557 254.829 383.079 259.306 377.557 259.306H181.756C176.233 259.306 171.756 254.829 171.756 249.306V236.447Z" stroke="#022D9A" stroke-opacity="0.9" stroke-width="2"/>
<path d="M33.9768 236.447C33.9768 234.238 35.7677 232.447 37.9768 232.447H64.8249C67.0341 232.447 68.8249 234.238 68.8249 236.447V249.306C68.8249 255.381 63.9001 260.306 57.8249 260.306H44.9768C38.9017 260.306 33.9768 255.381 33.9768 249.306V236.447Z" fill="url(#paint57_linear_15_146)"/>
<path d="M34.9768 236.447C34.9768 234.79 36.32 233.447 37.9768 233.447H64.8249C66.4818 233.447 67.8249 234.79 67.8249 236.447V249.306C67.8249 254.829 63.3478 259.306 57.8249 259.306H44.9768C39.454 259.306 34.9768 254.829 34.9768 249.306V236.447Z" stroke="#022D9A" stroke-opacity="0.9" stroke-width="2"/>
<path d="M33.9768 199.012C33.9768 196.803 35.7677 195.012 37.9768 195.012H99.673C101.882 195.012 103.673 196.803 103.673 199.012V211.871C103.673 217.946 98.7482 222.871 92.673 222.871H44.9768C38.9017 222.871 33.9768 217.946 33.9768 211.871V199.012Z" fill="url(#paint58_linear_15_146)"/>
<path d="M34.9768 199.012C34.9768 197.355 36.32 196.012 37.9768 196.012H99.673C101.33 196.012 102.673 197.355 102.673 199.012V211.871C102.673 217.393 98.1959 221.871 92.673 221.871H44.9768C39.454 221.871 34.9768 217.393 34.9768 211.871V199.012Z" stroke="#022D9A" stroke-opacity="0.9" stroke-width="2"/>
<path d="M33.1057 162.447C33.1057 160.238 34.8966 158.447 37.1057 158.447H81.3779C83.587 158.447 85.3779 160.238 85.3779 162.447V175.306C85.3779 181.381 80.453 186.306 74.3779 186.306H44.1057C38.0306 186.306 33.1057 181.381 33.1057 175.306V162.447Z" fill="url(#paint59_linear_15_146)"/>
<path d="M34.1057 162.447C34.1057 160.79 35.4489 159.447 37.1057 159.447H81.3779C83.0347 159.447 84.3779 160.79 84.3779 162.447V175.306C84.3779 180.829 79.9007 185.306 74.3779 185.306H44.1057C38.5829 185.306 34.1057 180.829 34.1057 175.306V162.447Z" stroke="#022D9A" stroke-opacity="0.9" stroke-width="2"/>
<path d="M33.1057 127.624C33.1057 125.414 34.8966 123.624 37.1057 123.624H72.6659C74.875 123.624 76.6659 125.414 76.6659 127.624V140.482C76.6659 146.557 71.741 151.482 65.6659 151.482H44.1057C38.0306 151.482 33.1057 146.557 33.1057 140.482V127.624Z" fill="url(#paint60_linear_15_146)"/>
<path d="M34.1057 127.624C34.1057 125.967 35.4489 124.624 37.1057 124.624H72.6659C74.3227 124.624 75.6659 125.967 75.6659 127.624V140.482C75.6659 146.005 71.1887 150.482 65.6659 150.482H44.1057C38.5829 150.482 34.1057 146.005 34.1057 140.482V127.624Z" stroke="#022D9A" stroke-opacity="0.9" stroke-width="2"/>
<path d="M78.4082 236.447C78.4082 234.238 80.1991 232.447 82.4082 232.447H109.256C111.465 232.447 113.256 234.238 113.256 236.447V249.306C113.256 255.381 108.331 260.306 102.256 260.306H89.4082C83.3331 260.306 78.4082 255.381 78.4082 249.306V236.447Z" fill="url(#paint61_linear_15_146)"/>
<path d="M79.4082 236.447C79.4082 234.79 80.7513 233.447 82.4082 233.447H109.256C110.913 233.447 112.256 234.79 112.256 236.447V249.306C112.256 254.829 107.779 259.306 102.256 259.306H89.4082C83.8853 259.306 79.4082 254.829 79.4082 249.306V236.447Z" stroke="#022D9A" stroke-opacity="0.9" stroke-width="2"/>
<path d="M122.84 236.447C122.84 234.238 124.63 232.447 126.84 232.447H153.688C155.897 232.447 157.688 234.238 157.688 236.447V249.306C157.688 255.381 152.763 260.306 146.688 260.306H133.84C127.764 260.306 122.84 255.381 122.84 249.306V236.447Z" fill="url(#paint62_linear_15_146)"/>
<path d="M123.84 236.447C123.84 234.79 125.183 233.447 126.84 233.447H153.688C155.345 233.447 156.688 234.79 156.688 236.447V249.306C156.688 254.829 152.211 259.306 146.688 259.306H133.84C128.317 259.306 123.84 254.829 123.84 249.306V236.447Z" stroke="#022D9A" stroke-opacity="0.9" stroke-width="2"/>
<path d="M105.416 37.0823C105.416 34.8732 107.206 33.0823 109.416 33.0823H127.552C129.761 33.0823 131.552 34.8732 131.552 37.0823V49.9412C131.552 56.0163 126.627 60.9412 120.552 60.9412H116.416C110.34 60.9412 105.416 56.0163 105.416 49.9412V37.0823Z" fill="url(#paint63_linear_15_146)"/>
<path d="M106.416 37.0823C106.416 35.4255 107.759 34.0823 109.416 34.0823H127.552C129.208 34.0823 130.552 35.4255 130.552 37.0823V49.9412C130.552 55.464 126.074 59.9412 120.552 59.9412H116.416C110.893 59.9412 106.416 55.464 106.416 49.9412V37.0823Z" stroke="#022D9A" stroke-opacity="0.9" stroke-width="2"/>
<path d="M142.006 37.0823C142.006 34.8732 143.797 33.0823 146.006 33.0823H164.142C166.351 33.0823 168.142 34.8732 168.142 37.0823V49.9412C168.142 56.0163 163.217 60.9412 157.142 60.9412H153.006C146.931 60.9412 142.006 56.0163 142.006 49.9412V37.0823Z" fill="url(#paint64_linear_15_146)"/>
<path d="M143.006 37.0823C143.006 35.4255 144.349 34.0823 146.006 34.0823H164.142C165.799 34.0823 167.142 35.4255 167.142 37.0823V49.9412C167.142 55.464 162.665 59.9412 157.142 59.9412H153.006C147.483 59.9412 143.006 55.464 143.006 49.9412V37.0823Z" stroke="#022D9A" stroke-opacity="0.9" stroke-width="2"/>
<path d="M178.597 37.0823C178.597 34.8732 180.388 33.0823 182.597 33.0823H200.733C202.942 33.0823 204.733 34.8732 204.733 37.0823V49.9412C204.733 56.0163 199.808 60.9412 193.733 60.9412H189.597C183.522 60.9412 178.597 56.0163 178.597 49.9412V37.0823Z" fill="url(#paint65_linear_15_146)"/>
<path d="M179.597 37.0823C179.597 35.4255 180.94 34.0823 182.597 34.0823H200.733C202.39 34.0823 203.733 35.4255 203.733 37.0823V49.9412C203.733 55.464 199.256 59.9412 193.733 59.9412H189.597C184.074 59.9412 179.597 55.464 179.597 49.9412V37.0823Z" stroke="#022D9A" stroke-opacity="0.9" stroke-width="2"/>
<path d="M215.187 37.0823C215.187 34.8732 216.978 33.0823 219.187 33.0823H237.323C239.532 33.0823 241.323 34.8732 241.323 37.0823V49.9412C241.323 56.0163 236.398 60.9412 230.323 60.9412H226.187C220.112 60.9412 215.187 56.0163 215.187 49.9412V37.0823Z" fill="url(#paint66_linear_15_146)"/>
<path d="M216.187 37.0823C216.187 35.4255 217.53 34.0823 219.187 34.0823H237.323C238.98 34.0823 240.323 35.4255 240.323 37.0823V49.9412C240.323 55.464 235.846 59.9412 230.323 59.9412H226.187C220.664 59.9412 216.187 55.464 216.187 49.9412V37.0823Z" stroke="#022D9A" stroke-opacity="0.9" stroke-width="2"/>
<path d="M270.944 37.0823C270.944 34.8732 272.735 33.0823 274.944 33.0823H293.08C295.289 33.0823 297.08 34.8732 297.08 37.0823V49.9412C297.08 56.0163 292.155 60.9412 286.08 60.9412H281.944C275.869 60.9412 270.944 56.0163 270.944 49.9412V37.0823Z" fill="url(#paint67_linear_15_146)"/>
<path d="M271.944 37.0823C271.944 35.4255 273.287 34.0823 274.944 34.0823H293.08C294.737 34.0823 296.08 35.4255 296.08 37.0823V49.9412C296.08 55.464 291.603 59.9412 286.08 59.9412H281.944C276.421 59.9412 271.944 55.464 271.944 49.9412V37.0823Z" stroke="#022D9A" stroke-opacity="0.9" stroke-width="2"/>
<path d="M306.663 37.0823C306.663 34.8732 308.454 33.0823 310.663 33.0823H328.799C331.009 33.0823 332.799 34.8732 332.799 37.0823V49.9412C332.799 56.0163 327.875 60.9412 321.799 60.9412H317.663C311.588 60.9412 306.663 56.0163 306.663 49.9412V37.0823Z" fill="url(#paint68_linear_15_146)"/>
<path d="M307.663 37.0823C307.663 35.4255 309.006 34.0823 310.663 34.0823H328.799C330.456 34.0823 331.799 35.4255 331.799 37.0823V49.9412C331.799 55.464 327.322 59.9412 321.799 59.9412H317.663C312.14 59.9412 307.663 55.464 307.663 49.9412V37.0823Z" stroke="#022D9A" stroke-opacity="0.9" stroke-width="2"/>
<path d="M342.383 37.0823C342.383 34.8732 344.174 33.0823 346.383 33.0823H364.519C366.728 33.0823 368.519 34.8732 368.519 37.0823V49.9412C368.519 56.0163 363.594 60.9412 357.519 60.9412H353.383C347.308 60.9412 342.383 56.0163 342.383 49.9412V37.0823Z" fill="url(#paint69_linear_15_146)"/>
<path d="M343.383 37.0823C343.383 35.4255 344.726 34.0823 346.383 34.0823H364.519C366.176 34.0823 367.519 35.4255 367.519 37.0823V49.9412C367.519 55.464 363.042 59.9412 357.519 59.9412H353.383C347.86 59.9412 343.383 55.464 343.383 49.9412V37.0823Z" stroke="#022D9A" stroke-opacity="0.9" stroke-width="2"/>
<path d="M378.102 37.0823C378.102 34.8732 379.893 33.0823 382.102 33.0823H400.238C402.447 33.0823 404.238 34.8732 404.238 37.0823V49.9412C404.238 56.0163 399.313 60.9412 393.238 60.9412H389.102C383.027 60.9412 378.102 56.0163 378.102 49.9412V37.0823Z" fill="url(#paint70_linear_15_146)"/>
<path d="M379.102 37.0823C379.102 35.4255 380.445 34.0823 382.102 34.0823H400.238C401.895 34.0823 403.238 35.4255 403.238 37.0823V49.9412C403.238 55.464 398.761 59.9412 393.238 59.9412H389.102C383.579 59.9412 379.102 55.464 379.102 49.9412V37.0823Z" stroke="#022D9A" stroke-opacity="0.9" stroke-width="2"/>
<path d="M434.73 37.0823C434.73 34.8732 436.521 33.0823 438.73 33.0823H456.866C459.075 33.0823 460.866 34.8732 460.866 37.0823V49.9412C460.866 56.0163 455.941 60.9412 449.866 60.9412H445.73C439.655 60.9412 434.73 56.0163 434.73 49.9412V37.0823Z" fill="url(#paint71_linear_15_146)"/>
<path d="M435.73 37.0823C435.73 35.4255 437.073 34.0823 438.73 34.0823H456.866C458.523 34.0823 459.866 35.4255 459.866 37.0823V49.9412C459.866 55.464 455.389 59.9412 449.866 59.9412H445.73C440.207 59.9412 435.73 55.464 435.73 49.9412V37.0823Z" stroke="#022D9A" stroke-opacity="0.9" stroke-width="2"/>
<path d="M471.321 37.0823C471.321 34.8732 473.112 33.0823 475.321 33.0823H493.457C495.666 33.0823 497.457 34.8732 497.457 37.0823V49.9412C497.457 56.0163 492.532 60.9412 486.457 60.9412H482.321C476.246 60.9412 471.321 56.0163 471.321 49.9412V37.0823Z" fill="url(#paint72_linear_15_146)"/>
<path d="M472.321 37.0823C472.321 35.4255 473.664 34.0823 475.321 34.0823H493.457C495.114 34.0823 496.457 35.4255 496.457 37.0823V49.9412C496.457 55.464 491.98 59.9412 486.457 59.9412H482.321C476.798 59.9412 472.321 55.464 472.321 49.9412V37.0823Z" stroke="#022D9A" stroke-opacity="0.9" stroke-width="2"/>
<path d="M507.911 37.0823C507.911 34.8732 509.702 33.0823 511.911 33.0823H530.047C532.257 33.0823 534.047 34.8732 534.047 37.0823V49.9412C534.047 56.0163 529.123 60.9412 523.047 60.9412H518.911C512.836 60.9412 507.911 56.0163 507.911 49.9412V37.0823Z" fill="url(#paint73_linear_15_146)"/>
<path d="M508.911 37.0823C508.911 35.4255 510.255 34.0823 511.911 34.0823H530.047C531.704 34.0823 533.047 35.4255 533.047 37.0823V49.9412C533.047 55.464 528.57 59.9412 523.047 59.9412H518.911C513.389 59.9412 508.911 55.464 508.911 49.9412V37.0823Z" stroke="#022D9A" stroke-opacity="0.9" stroke-width="2"/>
<path d="M544.502 37.0823C544.502 34.8732 546.293 33.0823 548.502 33.0823H566.638C568.847 33.0823 570.638 34.8732 570.638 37.0823V49.9412C570.638 56.0163 565.713 60.9412 559.638 60.9412H555.502C549.427 60.9412 544.502 56.0163 544.502 49.9412V37.0823Z" fill="url(#paint74_linear_15_146)"/>
<path d="M545.502 37.0823C545.502 35.4255 546.845 34.0823 548.502 34.0823H566.638C568.295 34.0823 569.638 35.4255 569.638 37.0823V49.9412C569.638 55.464 565.161 59.9412 559.638 59.9412H555.502C549.979 59.9412 545.502 55.464 545.502 49.9412V37.0823Z" stroke="#022D9A" stroke-opacity="0.9" stroke-width="2"/>
<path d="M590.676 37.0823C590.676 34.8732 592.466 33.0823 594.676 33.0823H612.812C615.021 33.0823 616.812 34.8732 616.812 37.0823V49.9412C616.812 56.0163 611.887 60.9412 605.812 60.9412H601.676C595.6 60.9412 590.676 56.0163 590.676 49.9412V37.0823Z" fill="url(#paint75_linear_15_146)"/>
<path d="M591.676 37.0823C591.676 35.4255 593.019 34.0823 594.676 34.0823H612.812C614.468 34.0823 615.812 35.4255 615.812 37.0823V49.9412C615.812 55.464 611.334 59.9412 605.812 59.9412H601.676C596.153 59.9412 591.676 55.464 591.676 49.9412V37.0823Z" stroke="#022D9A" stroke-opacity="0.9" stroke-width="2"/>
<path d="M590.676 91.0588C590.676 88.8497 592.466 87.0588 594.676 87.0588H612.812C615.021 87.0588 616.812 88.8497 616.812 91.0588V103.918C616.812 109.993 611.887 114.918 605.812 114.918H601.676C595.6 114.918 590.676 109.993 590.676 103.918V91.0588Z" fill="url(#paint76_linear_15_146)"/>
<path d="M591.676 91.0588C591.676 89.402 593.019 88.0588 594.676 88.0588H612.812C614.468 88.0588 615.812 89.402 615.812 91.0588V103.918C615.812 109.441 611.334 113.918 605.812 113.918H601.676C596.153 113.918 591.676 109.441 591.676 103.918V91.0588Z" stroke="#022D9A" stroke-opacity="0.9" stroke-width="2"/>
<path d="M627.266 91.0588C627.266 88.8497 629.057 87.0588 631.266 87.0588H649.402C651.611 87.0588 653.402 88.8497 653.402 91.0588V103.918C653.402 109.993 648.477 114.918 642.402 114.918H638.266C632.191 114.918 627.266 109.993 627.266 103.918V91.0588Z" fill="url(#paint77_linear_15_146)"/>
<path d="M628.266 91.0588C628.266 89.402 629.609 88.0588 631.266 88.0588H649.402C651.059 88.0588 652.402 89.402 652.402 91.0588V103.918C652.402 109.441 647.925 113.918 642.402 113.918H638.266C632.743 113.918 628.266 109.441 628.266 103.918V91.0588Z" stroke="#022D9A" stroke-opacity="0.9" stroke-width="2"/>
<path d="M663.857 91.0588C663.857 88.8497 665.648 87.0588 667.857 87.0588H685.993C688.202 87.0588 689.993 88.8497 689.993 91.0588V103.918C689.993 109.993 685.068 114.918 678.993 114.918H674.857C668.782 114.918 663.857 109.993 663.857 103.918V91.0588Z" fill="url(#paint78_linear_15_146)"/>
<path d="M664.857 91.0588C664.857 89.402 666.2 88.0588 667.857 88.0588H685.993C687.65 88.0588 688.993 89.402 688.993 91.0588V103.918C688.993 109.441 684.516 113.918 678.993 113.918H674.857C669.334 113.918 664.857 109.441 664.857 103.918V91.0588Z" stroke="#022D9A" stroke-opacity="0.9" stroke-width="2"/>
<path d="M590.676 125.882C590.676 123.673 592.466 121.882 594.676 121.882H612.812C615.021 121.882 616.812 123.673 616.812 125.882V138.741C616.812 144.816 611.887 149.741 605.812 149.741H601.676C595.6 149.741 590.676 144.816 590.676 138.741V125.882Z" fill="url(#paint79_linear_15_146)"/>
<path d="M591.676 125.882C591.676 124.226 593.019 122.882 594.676 122.882H612.812C614.468 122.882 615.812 124.226 615.812 125.882V138.741C615.812 144.264 611.334 148.741 605.812 148.741H601.676C596.153 148.741 591.676 144.264 591.676 138.741V125.882Z" stroke="#022D9A" stroke-opacity="0.9" stroke-width="2"/>
<path d="M626.395 199.882C626.395 197.673 628.186 195.882 630.395 195.882H648.531C650.74 195.882 652.531 197.673 652.531 199.882V212.741C652.531 218.816 647.606 223.741 641.531 223.741H637.395C631.32 223.741 626.395 218.816 626.395 212.741V199.882Z" fill="url(#paint80_linear_15_146)"/>
<path d="M627.395 199.882C627.395 198.226 628.738 196.882 630.395 196.882H648.531C650.188 196.882 651.531 198.226 651.531 199.882V212.741C651.531 218.264 647.054 222.741 641.531 222.741H637.395C631.872 222.741 627.395 218.264 627.395 212.741V199.882Z" stroke="#022D9A" stroke-opacity="0.9" stroke-width="2"/>
<path d="M590.676 236.447C590.676 234.238 592.466 232.447 594.676 232.447H612.812C615.021 232.447 616.812 234.238 616.812 236.447V249.306C616.812 255.381 611.887 260.306 605.812 260.306H601.676C595.6 260.306 590.676 255.381 590.676 249.306V236.447Z" fill="url(#paint81_linear_15_146)"/>
<path d="M591.676 236.447C591.676 234.79 593.019 233.447 594.676 233.447H612.812C614.468 233.447 615.812 234.79 615.812 236.447V249.306C615.812 254.829 611.334 259.306 605.812 259.306H601.676C596.153 259.306 591.676 254.829 591.676 249.306V236.447Z" stroke="#022D9A" stroke-opacity="0.9" stroke-width="2"/>
<path d="M626.395 236.447C626.395 234.238 628.186 232.447 630.395 232.447H648.531C650.74 232.447 652.531 234.238 652.531 236.447V249.306C652.531 255.381 647.606 260.306 641.531 260.306H637.395C631.32 260.306 626.395 255.381 626.395 249.306V236.447Z" fill="url(#paint82_linear_15_146)"/>
<path d="M627.395 236.447C627.395 234.79 628.738 233.447 630.395 233.447H648.531C650.188 233.447 651.531 234.79 651.531 236.447V249.306C651.531 254.829 647.054 259.306 641.531 259.306H637.395C631.872 259.306 627.395 254.829 627.395 249.306V236.447Z" stroke="#022D9A" stroke-opacity="0.9" stroke-width="2"/>
<path d="M662.114 236.447C662.114 234.238 663.905 232.447 666.114 232.447H684.25C686.46 232.447 688.25 234.238 688.25 236.447V249.306C688.25 255.381 683.325 260.306 677.25 260.306H673.114C667.039 260.306 662.114 255.381 662.114 249.306V236.447Z" fill="url(#paint83_linear_15_146)"/>
<path d="M663.114 236.447C663.114 234.79 664.457 233.447 666.114 233.447H684.25C685.907 233.447 687.25 234.79 687.25 236.447V249.306C687.25 254.829 682.773 259.306 677.25 259.306H673.114C667.591 259.306 663.114 254.829 663.114 249.306V236.447Z" stroke="#022D9A" stroke-opacity="0.9" stroke-width="2"/>
<path d="M627.266 125.882C627.266 123.673 629.057 121.882 631.266 121.882H649.402C651.611 121.882 653.402 123.673 653.402 125.882V138.741C653.402 144.816 648.477 149.741 642.402 149.741H638.266C632.191 149.741 627.266 144.816 627.266 138.741V125.882Z" fill="url(#paint84_linear_15_146)"/>
<path d="M628.266 125.882C628.266 124.226 629.609 122.882 631.266 122.882H649.402C651.059 122.882 652.402 124.226 652.402 125.882V138.741C652.402 144.264 647.925 148.741 642.402 148.741H638.266C632.743 148.741 628.266 144.264 628.266 138.741V125.882Z" stroke="#022D9A" stroke-opacity="0.9" stroke-width="2"/>
<path d="M663.857 125.882C663.857 123.673 665.648 121.882 667.857 121.882H685.993C688.202 121.882 689.993 123.673 689.993 125.882V138.741C689.993 144.816 685.068 149.741 678.993 149.741H674.857C668.782 149.741 663.857 144.816 663.857 138.741V125.882Z" fill="url(#paint85_linear_15_146)"/>
<path d="M664.857 125.882C664.857 124.226 666.2 122.882 667.857 122.882H685.993C687.65 122.882 688.993 124.226 688.993 125.882V138.741C688.993 144.264 684.516 148.741 678.993 148.741H674.857C669.334 148.741 664.857 144.264 664.857 138.741V125.882Z" stroke="#022D9A" stroke-opacity="0.9" stroke-width="2"/>
<path d="M626.395 37.0823C626.395 34.8732 628.186 33.0823 630.395 33.0823H648.531C650.74 33.0823 652.531 34.8732 652.531 37.0823V49.9412C652.531 56.0163 647.606 60.9412 641.531 60.9412H637.395C631.32 60.9412 626.395 56.0163 626.395 49.9412V37.0823Z" fill="url(#paint86_linear_15_146)"/>
<path d="M627.395 37.0823C627.395 35.4255 628.738 34.0823 630.395 34.0823H648.531C650.188 34.0823 651.531 35.4255 651.531 37.0823V49.9412C651.531 55.464 647.054 59.9412 641.531 59.9412H637.395C631.872 59.9412 627.395 55.464 627.395 49.9412V37.0823Z" stroke="#022D9A" stroke-opacity="0.9" stroke-width="2"/>
<path d="M663.857 37.0823C663.857 34.8732 665.648 33.0823 667.857 33.0823H685.993C688.202 33.0823 689.993 34.8732 689.993 37.0823V49.9412C689.993 56.0163 685.068 60.9412 678.993 60.9412H674.857C668.782 60.9412 663.857 56.0163 663.857 49.9412V37.0823Z" fill="url(#paint87_linear_15_146)"/>
<path d="M664.857 37.0823C664.857 35.4255 666.2 34.0823 667.857 34.0823H685.993C687.65 34.0823 688.993 35.4255 688.993 37.0823V49.9412C688.993 55.464 684.516 59.9412 678.993 59.9412H674.857C669.334 59.9412 664.857 55.464 664.857 49.9412V37.0823Z" stroke="#022D9A" stroke-opacity="0.9" stroke-width="2"/>
<rect x="25.2649" y="28.7294" width="40.0753" height="40.9176" rx="4" fill="url(#paint88_linear_15_146)"/>
<rect x="26.2649" y="29.7294" width="38.0753" height="38.9176" rx="3" stroke="#022D9A" stroke-opacity="0.9" stroke-width="2"/>
<rect x="25.2649" y="80.0941" width="551.471" height="189.788" rx="4" fill="url(#paint89_linear_15_146)"/>
<rect x="26.2649" y="81.0941" width="549.471" height="187.788" rx="3" stroke="#022D9A" stroke-opacity="0.9" stroke-width="2"/>
<rect x="583.706" y="80.0941" width="113.256" height="80.0941" rx="4" fill="url(#paint90_linear_15_146)"/>
<rect x="584.706" y="81.0941" width="111.256" height="78.0941" rx="3" stroke="#022D9A" stroke-opacity="0.9" stroke-width="2"/>
<path d="M582.835 232.949C582.835 230.74 584.626 228.949 586.835 228.949H616.732C618.941 228.949 620.732 227.159 620.732 224.949V193.353C620.732 191.144 622.523 189.353 624.732 189.353H654.194C656.403 189.353 658.194 191.144 658.194 193.353V224.949C658.194 227.159 659.985 228.949 662.194 228.949H692.091C694.3 228.949 696.091 230.74 696.091 232.949V265.012C696.091 267.221 694.3 269.012 692.091 269.012H586.835C584.626 269.012 582.835 267.221 582.835 265.012V232.949Z" fill="url(#paint91_linear_15_146)"/>
<path d="M583.835 232.949C583.835 231.293 585.178 229.949 586.835 229.949H616.732C619.493 229.949 621.732 227.711 621.732 224.949V193.353C621.732 191.696 623.075 190.353 624.732 190.353H654.194C655.851 190.353 657.194 191.696 657.194 193.353V224.949C657.194 227.711 659.432 229.949 662.194 229.949H692.091C693.748 229.949 695.091 231.293 695.091 232.949V265.012C695.091 266.669 693.748 268.012 692.091 268.012H586.835C585.178 268.012 583.835 266.669 583.835 265.012V232.949Z" stroke="#022D9A" stroke-opacity="0.9" stroke-width="2"/>
<rect x="99.3171" y="28.7294" width="148.976" height="40.9176" rx="4" fill="url(#paint92_linear_15_146)"/>
<rect x="100.317" y="29.7294" width="146.976" height="38.9176" rx="3" stroke="#022D9A" stroke-opacity="0.9" stroke-width="2"/>
<rect x="263.103" y="28.7294" width="148.976" height="40.9176" rx="4" fill="url(#paint93_linear_15_146)"/>
<rect x="264.103" y="29.7294" width="146.976" height="38.9176" rx="3" stroke="#022D9A" stroke-opacity="0.9" stroke-width="2"/>
<rect x="426.889" y="28.7294" width="148.976" height="40.9176" rx="4" fill="url(#paint94_linear_15_146)"/>
<rect x="427.889" y="29.7294" width="146.976" height="38.9176" rx="3" stroke="#022D9A" stroke-opacity="0.9" stroke-width="2"/>
<rect x="583.706" y="28.7294" width="112.385" height="40.9176" rx="4" fill="url(#paint95_linear_15_146)"/>
<rect x="584.706" y="29.7294" width="110.385" height="38.9176" rx="3" stroke="#022D9A" stroke-opacity="0.9" stroke-width="2"/>
</g>
<defs>
<filter id="filter0_d_15_146" x="0" y="0" width="757" height="336" filterUnits="userSpaceOnUse" color-interpolation-filters="sRGB">
<feFlood flood-opacity="0" result="BackgroundImageFix"/>
<feColorMatrix in="SourceAlpha" type="matrix" values="0 0 0 0 0 0 0 0 0 0 0 0 0 0 0 0 0 0 127 0" result="hardAlpha"/>
<feOffset dx="30" dy="30"/>
<feGaussianBlur stdDeviation="5"/>
<feComposite in2="hardAlpha" operator="out"/>
<feColorMatrix type="matrix" values="0 0 0 0 0 0 0 0 0 0 0 0 0 0 0 0 0 0 0.25 0"/>
<feBlend mode="normal" in2="BackgroundImageFix" result="effect1_dropShadow_15_146"/>
<feBlend mode="normal" in="SourceGraphic" in2="effect1_dropShadow_15_146" result="shape"/>
</filter>
<linearGradient id="paint0_linear_15_146" x1="358.5" y1="0" x2="358.5" y2="296" gradientUnits="userSpaceOnUse">
<stop stop-color="#491572" stop-opacity="0.760417"/>
<stop offset="0.71875" stop-color="#AF4CEC" stop-opacity="0"/>
</linearGradient>
<linearGradient id="paint1_linear_15_146" x1="45.3027" y1="33.0823" x2="45.3027" y2="60.9412" gradientUnits="userSpaceOnUse">
<stop stop-color="#491572" stop-opacity="0.760417"/>
<stop offset="0.71875" stop-color="#AF4CEC" stop-opacity="0"/>
</linearGradient>
<linearGradient id="paint2_linear_15_146" x1="45.3027" y1="87.0588" x2="45.3027" y2="114.918" gradientUnits="userSpaceOnUse">
<stop stop-color="#491572" stop-opacity="0.760417"/>
<stop offset="0.71875" stop-color="#AF4CEC" stop-opacity="0"/>
</linearGradient>
<linearGradient id="paint3_linear_15_146" x1="81.893" y1="87.0588" x2="81.893" y2="114.918" gradientUnits="userSpaceOnUse">
<stop stop-color="#491572" stop-opacity="0.760417"/>
<stop offset="0.71875" stop-color="#AF4CEC" stop-opacity="0"/>
</linearGradient>
<linearGradient id="paint4_linear_15_146" x1="101.059" y1="123.624" x2="101.059" y2="151.482" gradientUnits="userSpaceOnUse">
<stop stop-color="#491572" stop-opacity="0.760417"/>
<stop offset="0.71875" stop-color="#AF4CEC" stop-opacity="0"/>
</linearGradient>
<linearGradient id="paint5_linear_15_146" x1="136.779" y1="123.624" x2="136.779" y2="151.482" gradientUnits="userSpaceOnUse">
<stop stop-color="#491572" stop-opacity="0.760417"/>
<stop offset="0.71875" stop-color="#AF4CEC" stop-opacity="0"/>
</linearGradient>
<linearGradient id="paint6_linear_15_146" x1="172.498" y1="123.624" x2="172.498" y2="151.482" gradientUnits="userSpaceOnUse">
<stop stop-color="#491572" stop-opacity="0.760417"/>
<stop offset="0.71875" stop-color="#AF4CEC" stop-opacity="0"/>
</linearGradient>
<linearGradient id="paint7_linear_15_146" x1="208.217" y1="123.624" x2="208.217" y2="151.482" gradientUnits="userSpaceOnUse">
<stop stop-color="#491572" stop-opacity="0.760417"/>
<stop offset="0.71875" stop-color="#AF4CEC" stop-opacity="0"/>
</linearGradient>
<linearGradient id="paint8_linear_15_146" x1="243.937" y1="123.624" x2="243.937" y2="151.482" gradientUnits="userSpaceOnUse">
<stop stop-color="#491572" stop-opacity="0.760417"/>
<stop offset="0.71875" stop-color="#AF4CEC" stop-opacity="0"/>
</linearGradient>
<linearGradient id="paint9_linear_15_146" x1="279.656" y1="123.624" x2="279.656" y2="151.482" gradientUnits="userSpaceOnUse">
<stop stop-color="#491572" stop-opacity="0.760417"/>
<stop offset="0.71875" stop-color="#AF4CEC" stop-opacity="0"/>
</linearGradient>
<linearGradient id="paint10_linear_15_146" x1="315.375" y1="123.624" x2="315.375" y2="151.482" gradientUnits="userSpaceOnUse">
<stop stop-color="#491572" stop-opacity="0.760417"/>
<stop offset="0.71875" stop-color="#AF4CEC" stop-opacity="0"/>
</linearGradient>
<linearGradient id="paint11_linear_15_146" x1="109.772" y1="158.447" x2="109.772" y2="186.306" gradientUnits="userSpaceOnUse">
<stop stop-color="#491572" stop-opacity="0.760417"/>
<stop offset="0.71875" stop-color="#AF4CEC" stop-opacity="0"/>
</linearGradient>
<linearGradient id="paint12_linear_15_146" x1="145.491" y1="158.447" x2="145.491" y2="186.306" gradientUnits="userSpaceOnUse">
<stop stop-color="#491572" stop-opacity="0.760417"/>
<stop offset="0.71875" stop-color="#AF4CEC" stop-opacity="0"/>
</linearGradient>
<linearGradient id="paint13_linear_15_146" x1="181.21" y1="158.447" x2="181.21" y2="186.306" gradientUnits="userSpaceOnUse">
<stop stop-color="#491572" stop-opacity="0.760417"/>
<stop offset="0.71875" stop-color="#AF4CEC" stop-opacity="0"/>
</linearGradient>
<linearGradient id="paint14_linear_15_146" x1="216.93" y1="158.447" x2="216.93" y2="186.306" gradientUnits="userSpaceOnUse">
<stop stop-color="#491572" stop-opacity="0.760417"/>
<stop offset="0.71875" stop-color="#AF4CEC" stop-opacity="0"/>
</linearGradient>
<linearGradient id="paint15_linear_15_146" x1="252.649" y1="158.447" x2="252.649" y2="186.306" gradientUnits="userSpaceOnUse">
<stop stop-color="#491572" stop-opacity="0.760417"/>
<stop offset="0.71875" stop-color="#AF4CEC" stop-opacity="0"/>
</linearGradient>
<linearGradient id="paint16_linear_15_146" x1="288.368" y1="158.447" x2="288.368" y2="186.306" gradientUnits="userSpaceOnUse">
<stop stop-color="#491572" stop-opacity="0.760417"/>
<stop offset="0.71875" stop-color="#AF4CEC" stop-opacity="0"/>
</linearGradient>
<linearGradient id="paint17_linear_15_146" x1="324.088" y1="158.447" x2="324.088" y2="186.306" gradientUnits="userSpaceOnUse">
<stop stop-color="#491572" stop-opacity="0.760417"/>
<stop offset="0.71875" stop-color="#AF4CEC" stop-opacity="0"/>
</linearGradient>
<linearGradient id="paint18_linear_15_146" x1="127.196" y1="195.012" x2="127.196" y2="222.871" gradientUnits="userSpaceOnUse">
<stop stop-color="#491572" stop-opacity="0.760417"/>
<stop offset="0.71875" stop-color="#AF4CEC" stop-opacity="0"/>
</linearGradient>
<linearGradient id="paint19_linear_15_146" x1="162.915" y1="195.012" x2="162.915" y2="222.871" gradientUnits="userSpaceOnUse">
<stop stop-color="#491572" stop-opacity="0.760417"/>
<stop offset="0.71875" stop-color="#AF4CEC" stop-opacity="0"/>
</linearGradient>
<linearGradient id="paint20_linear_15_146" x1="198.634" y1="195.012" x2="198.634" y2="222.871" gradientUnits="userSpaceOnUse">
<stop stop-color="#491572" stop-opacity="0.760417"/>
<stop offset="0.71875" stop-color="#AF4CEC" stop-opacity="0"/>
</linearGradient>
<linearGradient id="paint21_linear_15_146" x1="234.354" y1="195.012" x2="234.354" y2="222.871" gradientUnits="userSpaceOnUse">
<stop stop-color="#491572" stop-opacity="0.760417"/>
<stop offset="0.71875" stop-color="#AF4CEC" stop-opacity="0"/>
</linearGradient>
<linearGradient id="paint22_linear_15_146" x1="270.073" y1="195.012" x2="270.073" y2="222.871" gradientUnits="userSpaceOnUse">
<stop stop-color="#491572" stop-opacity="0.760417"/>
<stop offset="0.71875" stop-color="#AF4CEC" stop-opacity="0"/>
</linearGradient>
<linearGradient id="paint23_linear_15_146" x1="305.792" y1="195.012" x2="305.792" y2="222.871" gradientUnits="userSpaceOnUse">
<stop stop-color="#491572" stop-opacity="0.760417"/>
<stop offset="0.71875" stop-color="#AF4CEC" stop-opacity="0"/>
</linearGradient>
<linearGradient id="paint24_linear_15_146" x1="341.512" y1="195.012" x2="341.512" y2="222.871" gradientUnits="userSpaceOnUse">
<stop stop-color="#491572" stop-opacity="0.760417"/>
<stop offset="0.71875" stop-color="#AF4CEC" stop-opacity="0"/>
</linearGradient>
<linearGradient id="paint25_linear_15_146" x1="351.095" y1="123.624" x2="351.095" y2="151.482" gradientUnits="userSpaceOnUse">
<stop stop-color="#491572" stop-opacity="0.760417"/>
<stop offset="0.71875" stop-color="#AF4CEC" stop-opacity="0"/>
</linearGradient>
<linearGradient id="paint26_linear_15_146" x1="386.814" y1="123.624" x2="386.814" y2="151.482" gradientUnits="userSpaceOnUse">
<stop stop-color="#491572" stop-opacity="0.760417"/>
<stop offset="0.71875" stop-color="#AF4CEC" stop-opacity="0"/>
</linearGradient>
<linearGradient id="paint27_linear_15_146" x1="422.533" y1="123.624" x2="422.533" y2="151.482" gradientUnits="userSpaceOnUse">
<stop stop-color="#491572" stop-opacity="0.760417"/>
<stop offset="0.71875" stop-color="#AF4CEC" stop-opacity="0"/>
</linearGradient>
<linearGradient id="paint28_linear_15_146" x1="458.253" y1="123.624" x2="458.253" y2="151.482" gradientUnits="userSpaceOnUse">
<stop stop-color="#491572" stop-opacity="0.760417"/>
<stop offset="0.71875" stop-color="#AF4CEC" stop-opacity="0"/>
</linearGradient>
<linearGradient id="paint29_linear_15_146" x1="360.678" y1="158.447" x2="360.678" y2="186.306" gradientUnits="userSpaceOnUse">
<stop stop-color="#491572" stop-opacity="0.760417"/>
<stop offset="0.71875" stop-color="#AF4CEC" stop-opacity="0"/>
</linearGradient>
<linearGradient id="paint30_linear_15_146" x1="396.397" y1="158.447" x2="396.397" y2="186.306" gradientUnits="userSpaceOnUse">
<stop stop-color="#491572" stop-opacity="0.760417"/>
<stop offset="0.71875" stop-color="#AF4CEC" stop-opacity="0"/>
</linearGradient>
<linearGradient id="paint31_linear_15_146" x1="432.117" y1="158.447" x2="432.117" y2="186.306" gradientUnits="userSpaceOnUse">
<stop stop-color="#491572" stop-opacity="0.760417"/>
<stop offset="0.71875" stop-color="#AF4CEC" stop-opacity="0"/>
</linearGradient>
<linearGradient id="paint32_linear_15_146" x1="467.836" y1="158.447" x2="467.836" y2="186.306" gradientUnits="userSpaceOnUse">
<stop stop-color="#491572" stop-opacity="0.760417"/>
<stop offset="0.71875" stop-color="#AF4CEC" stop-opacity="0"/>
</linearGradient>
<linearGradient id="paint33_linear_15_146" x1="380.716" y1="195.012" x2="380.716" y2="222.871" gradientUnits="userSpaceOnUse">
<stop stop-color="#491572" stop-opacity="0.760417"/>
<stop offset="0.71875" stop-color="#AF4CEC" stop-opacity="0"/>
</linearGradient>
<linearGradient id="paint34_linear_15_146" x1="416.435" y1="195.012" x2="416.435" y2="222.871" gradientUnits="userSpaceOnUse">
<stop stop-color="#491572" stop-opacity="0.760417"/>
<stop offset="0.71875" stop-color="#AF4CEC" stop-opacity="0"/>
</linearGradient>
<linearGradient id="paint35_linear_15_146" x1="452.154" y1="195.012" x2="452.154" y2="222.871" gradientUnits="userSpaceOnUse">
<stop stop-color="#491572" stop-opacity="0.760417"/>
<stop offset="0.71875" stop-color="#AF4CEC" stop-opacity="0"/>
</linearGradient>
<linearGradient id="paint36_linear_15_146" x1="493.972" y1="123.624" x2="493.972" y2="151.482" gradientUnits="userSpaceOnUse">
<stop stop-color="#491572" stop-opacity="0.760417"/>
<stop offset="0.71875" stop-color="#AF4CEC" stop-opacity="0"/>
</linearGradient>
<linearGradient id="paint37_linear_15_146" x1="118.484" y1="87.0588" x2="118.484" y2="114.918" gradientUnits="userSpaceOnUse">
<stop stop-color="#491572" stop-opacity="0.760417"/>
<stop offset="0.71875" stop-color="#AF4CEC" stop-opacity="0"/>
</linearGradient>
<linearGradient id="paint38_linear_15_146" x1="155.074" y1="87.0588" x2="155.074" y2="114.918" gradientUnits="userSpaceOnUse">
<stop stop-color="#491572" stop-opacity="0.760417"/>
<stop offset="0.71875" stop-color="#AF4CEC" stop-opacity="0"/>
</linearGradient>
<linearGradient id="paint39_linear_15_146" x1="191.665" y1="87.0588" x2="191.665" y2="114.918" gradientUnits="userSpaceOnUse">
<stop stop-color="#491572" stop-opacity="0.760417"/>
<stop offset="0.71875" stop-color="#AF4CEC" stop-opacity="0"/>
</linearGradient>
<linearGradient id="paint40_linear_15_146" x1="228.255" y1="87.0588" x2="228.255" y2="114.918" gradientUnits="userSpaceOnUse">
<stop stop-color="#491572" stop-opacity="0.760417"/>
<stop offset="0.71875" stop-color="#AF4CEC" stop-opacity="0"/>
</linearGradient>
<linearGradient id="paint41_linear_15_146" x1="264.846" y1="87.0588" x2="264.846" y2="114.918" gradientUnits="userSpaceOnUse">
<stop stop-color="#491572" stop-opacity="0.760417"/>
<stop offset="0.71875" stop-color="#AF4CEC" stop-opacity="0"/>
</linearGradient>
<linearGradient id="paint42_linear_15_146" x1="301.436" y1="87.0588" x2="301.436" y2="114.918" gradientUnits="userSpaceOnUse">
<stop stop-color="#491572" stop-opacity="0.760417"/>
<stop offset="0.71875" stop-color="#AF4CEC" stop-opacity="0"/>
</linearGradient>
<linearGradient id="paint43_linear_15_146" x1="338.027" y1="87.0588" x2="338.027" y2="114.918" gradientUnits="userSpaceOnUse">
<stop stop-color="#491572" stop-opacity="0.760417"/>
<stop offset="0.71875" stop-color="#AF4CEC" stop-opacity="0"/>
</linearGradient>
<linearGradient id="paint44_linear_15_146" x1="374.617" y1="87.0588" x2="374.617" y2="114.918" gradientUnits="userSpaceOnUse">
<stop stop-color="#491572" stop-opacity="0.760417"/>
<stop offset="0.71875" stop-color="#AF4CEC" stop-opacity="0"/>
</linearGradient>
<linearGradient id="paint45_linear_15_146" x1="411.208" y1="87.0588" x2="411.208" y2="114.918" gradientUnits="userSpaceOnUse">
<stop stop-color="#491572" stop-opacity="0.760417"/>
<stop offset="0.71875" stop-color="#AF4CEC" stop-opacity="0"/>
</linearGradient>
<linearGradient id="paint46_linear_15_146" x1="447.798" y1="87.0588" x2="447.798" y2="114.918" gradientUnits="userSpaceOnUse">
<stop stop-color="#491572" stop-opacity="0.760417"/>
<stop offset="0.71875" stop-color="#AF4CEC" stop-opacity="0"/>
</linearGradient>
<linearGradient id="paint47_linear_15_146" x1="484.389" y1="87.0588" x2="484.389" y2="114.918" gradientUnits="userSpaceOnUse">
<stop stop-color="#491572" stop-opacity="0.760417"/>
<stop offset="0.71875" stop-color="#AF4CEC" stop-opacity="0"/>
</linearGradient>
<linearGradient id="paint48_linear_15_146" x1="538.839" y1="87.0588" x2="538.839" y2="114.918" gradientUnits="userSpaceOnUse">
<stop stop-color="#491572" stop-opacity="0.760417"/>
<stop offset="0.71875" stop-color="#AF4CEC" stop-opacity="0"/>
</linearGradient>
<linearGradient id="paint49_linear_15_146" x1="547.551" y1="121.882" x2="547.551" y2="149.741" gradientUnits="userSpaceOnUse">
<stop stop-color="#491572" stop-opacity="0.760417"/>
<stop offset="0.71875" stop-color="#AF4CEC" stop-opacity="0"/>
</linearGradient>
<linearGradient id="paint50_linear_15_146" x1="534.483" y1="159.318" x2="534.483" y2="187.176" gradientUnits="userSpaceOnUse">
<stop stop-color="#491572" stop-opacity="0.760417"/>
<stop offset="0.71875" stop-color="#AF4CEC" stop-opacity="0"/>
</linearGradient>
<linearGradient id="paint51_linear_15_146" x1="524.9" y1="196.753" x2="524.9" y2="224.612" gradientUnits="userSpaceOnUse">
<stop stop-color="#491572" stop-opacity="0.760417"/>
<stop offset="0.71875" stop-color="#AF4CEC" stop-opacity="0"/>
</linearGradient>
<linearGradient id="paint52_linear_15_146" x1="552.778" y1="232.447" x2="552.778" y2="260.306" gradientUnits="userSpaceOnUse">
<stop stop-color="#491572" stop-opacity="0.760417"/>
<stop offset="0.71875" stop-color="#AF4CEC" stop-opacity="0"/>
</linearGradient>
<linearGradient id="paint53_linear_15_146" x1="507.476" y1="232.447" x2="507.476" y2="260.306" gradientUnits="userSpaceOnUse">
<stop stop-color="#491572" stop-opacity="0.760417"/>
<stop offset="0.71875" stop-color="#AF4CEC" stop-opacity="0"/>
</linearGradient>
<linearGradient id="paint54_linear_15_146" x1="462.173" y1="232.447" x2="462.173" y2="260.306" gradientUnits="userSpaceOnUse">
<stop stop-color="#491572" stop-opacity="0.760417"/>
<stop offset="0.71875" stop-color="#AF4CEC" stop-opacity="0"/>
</linearGradient>
<linearGradient id="paint55_linear_15_146" x1="416.871" y1="232.447" x2="416.871" y2="260.306" gradientUnits="userSpaceOnUse">
<stop stop-color="#491572" stop-opacity="0.760417"/>
<stop offset="0.71875" stop-color="#AF4CEC" stop-opacity="0"/>
</linearGradient>
<linearGradient id="paint56_linear_15_146" x1="279.656" y1="232.447" x2="279.656" y2="260.306" gradientUnits="userSpaceOnUse">
<stop stop-color="#491572" stop-opacity="0.760417"/>
<stop offset="0.71875" stop-color="#AF4CEC" stop-opacity="0"/>
</linearGradient>
<linearGradient id="paint57_linear_15_146" x1="51.4009" y1="232.447" x2="51.4009" y2="260.306" gradientUnits="userSpaceOnUse">
<stop stop-color="#491572" stop-opacity="0.760417"/>
<stop offset="0.71875" stop-color="#AF4CEC" stop-opacity="0"/>
</linearGradient>
<linearGradient id="paint58_linear_15_146" x1="68.8249" y1="195.012" x2="68.8249" y2="222.871" gradientUnits="userSpaceOnUse">
<stop stop-color="#491572" stop-opacity="0.760417"/>
<stop offset="0.71875" stop-color="#AF4CEC" stop-opacity="0"/>
</linearGradient>
<linearGradient id="paint59_linear_15_146" x1="59.2418" y1="158.447" x2="59.2418" y2="186.306" gradientUnits="userSpaceOnUse">
<stop stop-color="#491572" stop-opacity="0.760417"/>
<stop offset="0.71875" stop-color="#AF4CEC" stop-opacity="0"/>
</linearGradient>
<linearGradient id="paint60_linear_15_146" x1="54.8858" y1="123.624" x2="54.8858" y2="151.482" gradientUnits="userSpaceOnUse">
<stop stop-color="#491572" stop-opacity="0.760417"/>
<stop offset="0.71875" stop-color="#AF4CEC" stop-opacity="0"/>
</linearGradient>
<linearGradient id="paint61_linear_15_146" x1="95.8323" y1="232.447" x2="95.8323" y2="260.306" gradientUnits="userSpaceOnUse">
<stop stop-color="#491572" stop-opacity="0.760417"/>
<stop offset="0.71875" stop-color="#AF4CEC" stop-opacity="0"/>
</linearGradient>
<linearGradient id="paint62_linear_15_146" x1="140.264" y1="232.447" x2="140.264" y2="260.306" gradientUnits="userSpaceOnUse">
<stop stop-color="#491572" stop-opacity="0.760417"/>
<stop offset="0.71875" stop-color="#AF4CEC" stop-opacity="0"/>
</linearGradient>
<linearGradient id="paint63_linear_15_146" x1="118.484" y1="33.0823" x2="118.484" y2="60.9412" gradientUnits="userSpaceOnUse">
<stop stop-color="#491572" stop-opacity="0.760417"/>
<stop offset="0.71875" stop-color="#AF4CEC" stop-opacity="0"/>
</linearGradient>
<linearGradient id="paint64_linear_15_146" x1="155.074" y1="33.0823" x2="155.074" y2="60.9412" gradientUnits="userSpaceOnUse">
<stop stop-color="#491572" stop-opacity="0.760417"/>
<stop offset="0.71875" stop-color="#AF4CEC" stop-opacity="0"/>
</linearGradient>
<linearGradient id="paint65_linear_15_146" x1="191.665" y1="33.0823" x2="191.665" y2="60.9412" gradientUnits="userSpaceOnUse">
<stop stop-color="#491572" stop-opacity="0.760417"/>
<stop offset="0.71875" stop-color="#AF4CEC" stop-opacity="0"/>
</linearGradient>
<linearGradient id="paint66_linear_15_146" x1="228.255" y1="33.0823" x2="228.255" y2="60.9412" gradientUnits="userSpaceOnUse">
<stop stop-color="#491572" stop-opacity="0.760417"/>
<stop offset="0.71875" stop-color="#AF4CEC" stop-opacity="0"/>
</linearGradient>
<linearGradient id="paint67_linear_15_146" x1="284.012" y1="33.0823" x2="284.012" y2="60.9412" gradientUnits="userSpaceOnUse">
<stop stop-color="#491572" stop-opacity="0.760417"/>
<stop offset="0.71875" stop-color="#AF4CEC" stop-opacity="0"/>
</linearGradient>
<linearGradient id="paint68_linear_15_146" x1="319.731" y1="33.0823" x2="319.731" y2="60.9412" gradientUnits="userSpaceOnUse">
<stop stop-color="#491572" stop-opacity="0.760417"/>
<stop offset="0.71875" stop-color="#AF4CEC" stop-opacity="0"/>
</linearGradient>
<linearGradient id="paint69_linear_15_146" x1="355.451" y1="33.0823" x2="355.451" y2="60.9412" gradientUnits="userSpaceOnUse">
<stop stop-color="#491572" stop-opacity="0.760417"/>
<stop offset="0.71875" stop-color="#AF4CEC" stop-opacity="0"/>
</linearGradient>
<linearGradient id="paint70_linear_15_146" x1="391.17" y1="33.0823" x2="391.17" y2="60.9412" gradientUnits="userSpaceOnUse">
<stop stop-color="#491572" stop-opacity="0.760417"/>
<stop offset="0.71875" stop-color="#AF4CEC" stop-opacity="0"/>
</linearGradient>
<linearGradient id="paint71_linear_15_146" x1="447.798" y1="33.0823" x2="447.798" y2="60.9412" gradientUnits="userSpaceOnUse">
<stop stop-color="#491572" stop-opacity="0.760417"/>
<stop offset="0.71875" stop-color="#AF4CEC" stop-opacity="0"/>
</linearGradient>
<linearGradient id="paint72_linear_15_146" x1="484.389" y1="33.0823" x2="484.389" y2="60.9412" gradientUnits="userSpaceOnUse">
<stop stop-color="#491572" stop-opacity="0.760417"/>
<stop offset="0.71875" stop-color="#AF4CEC" stop-opacity="0"/>
</linearGradient>
<linearGradient id="paint73_linear_15_146" x1="520.979" y1="33.0823" x2="520.979" y2="60.9412" gradientUnits="userSpaceOnUse">
<stop stop-color="#491572" stop-opacity="0.760417"/>
<stop offset="0.71875" stop-color="#AF4CEC" stop-opacity="0"/>
</linearGradient>
<linearGradient id="paint74_linear_15_146" x1="557.57" y1="33.0823" x2="557.57" y2="60.9412" gradientUnits="userSpaceOnUse">
<stop stop-color="#491572" stop-opacity="0.760417"/>
<stop offset="0.71875" stop-color="#AF4CEC" stop-opacity="0"/>
</linearGradient>
<linearGradient id="paint75_linear_15_146" x1="603.744" y1="33.0823" x2="603.744" y2="60.9412" gradientUnits="userSpaceOnUse">
<stop stop-color="#491572" stop-opacity="0.760417"/>
<stop offset="0.71875" stop-color="#AF4CEC" stop-opacity="0"/>
</linearGradient>
<linearGradient id="paint76_linear_15_146" x1="603.744" y1="87.0588" x2="603.744" y2="114.918" gradientUnits="userSpaceOnUse">
<stop stop-color="#491572" stop-opacity="0.760417"/>
<stop offset="0.71875" stop-color="#AF4CEC" stop-opacity="0"/>
</linearGradient>
<linearGradient id="paint77_linear_15_146" x1="640.334" y1="87.0588" x2="640.334" y2="114.918" gradientUnits="userSpaceOnUse">
<stop stop-color="#491572" stop-opacity="0.760417"/>
<stop offset="0.71875" stop-color="#AF4CEC" stop-opacity="0"/>
</linearGradient>
<linearGradient id="paint78_linear_15_146" x1="676.925" y1="87.0588" x2="676.925" y2="114.918" gradientUnits="userSpaceOnUse">
<stop stop-color="#491572" stop-opacity="0.760417"/>
<stop offset="0.71875" stop-color="#AF4CEC" stop-opacity="0"/>
</linearGradient>
<linearGradient id="paint79_linear_15_146" x1="603.744" y1="121.882" x2="603.744" y2="149.741" gradientUnits="userSpaceOnUse">
<stop stop-color="#491572" stop-opacity="0.760417"/>
<stop offset="0.71875" stop-color="#AF4CEC" stop-opacity="0"/>
</linearGradient>
<linearGradient id="paint80_linear_15_146" x1="639.463" y1="195.882" x2="639.463" y2="223.741" gradientUnits="userSpaceOnUse">
<stop stop-color="#491572" stop-opacity="0.760417"/>
<stop offset="0.71875" stop-color="#AF4CEC" stop-opacity="0"/>
</linearGradient>
<linearGradient id="paint81_linear_15_146" x1="603.744" y1="232.447" x2="603.744" y2="260.306" gradientUnits="userSpaceOnUse">
<stop stop-color="#491572" stop-opacity="0.760417"/>
<stop offset="0.71875" stop-color="#AF4CEC" stop-opacity="0"/>
</linearGradient>
<linearGradient id="paint82_linear_15_146" x1="639.463" y1="232.447" x2="639.463" y2="260.306" gradientUnits="userSpaceOnUse">
<stop stop-color="#491572" stop-opacity="0.760417"/>
<stop offset="0.71875" stop-color="#AF4CEC" stop-opacity="0"/>
</linearGradient>
<linearGradient id="paint83_linear_15_146" x1="675.182" y1="232.447" x2="675.182" y2="260.306" gradientUnits="userSpaceOnUse">
<stop stop-color="#491572" stop-opacity="0.760417"/>
<stop offset="0.71875" stop-color="#AF4CEC" stop-opacity="0"/>
</linearGradient>
<linearGradient id="paint84_linear_15_146" x1="640.334" y1="121.882" x2="640.334" y2="149.741" gradientUnits="userSpaceOnUse">
<stop stop-color="#491572" stop-opacity="0.760417"/>
<stop offset="0.71875" stop-color="#AF4CEC" stop-opacity="0"/>
</linearGradient>
<linearGradient id="paint85_linear_15_146" x1="676.925" y1="121.882" x2="676.925" y2="149.741" gradientUnits="userSpaceOnUse">
<stop stop-color="#491572" stop-opacity="0.760417"/>
<stop offset="0.71875" stop-color="#AF4CEC" stop-opacity="0"/>
</linearGradient>
<linearGradient id="paint86_linear_15_146" x1="639.463" y1="33.0823" x2="639.463" y2="60.9412" gradientUnits="userSpaceOnUse">
<stop stop-color="#491572" stop-opacity="0.760417"/>
<stop offset="0.71875" stop-color="#AF4CEC" stop-opacity="0"/>
</linearGradient>
<linearGradient id="paint87_linear_15_146" x1="676.925" y1="33.0823" x2="676.925" y2="60.9412" gradientUnits="userSpaceOnUse">
<stop stop-color="#491572" stop-opacity="0.760417"/>
<stop offset="0.71875" stop-color="#AF4CEC" stop-opacity="0"/>
</linearGradient>
<linearGradient id="paint88_linear_15_146" x1="45.3026" y1="28.7294" x2="45.3026" y2="69.647" gradientUnits="userSpaceOnUse">
<stop stop-color="#491572" stop-opacity="0.760417"/>
<stop offset="0.71875" stop-color="#AF4CEC" stop-opacity="0"/>
</linearGradient>
<linearGradient id="paint89_linear_15_146" x1="301.001" y1="80.0941" x2="301.001" y2="269.882" gradientUnits="userSpaceOnUse">
<stop stop-color="#491572" stop-opacity="0.760417"/>
<stop offset="0.71875" stop-color="#AF4CEC" stop-opacity="0"/>
</linearGradient>
<linearGradient id="paint90_linear_15_146" x1="640.334" y1="80.0941" x2="640.334" y2="160.188" gradientUnits="userSpaceOnUse">
<stop stop-color="#491572" stop-opacity="0.760417"/>
<stop offset="0.71875" stop-color="#AF4CEC" stop-opacity="0"/>
</linearGradient>
<linearGradient id="paint91_linear_15_146" x1="639.463" y1="189.353" x2="639.463" y2="269.012" gradientUnits="userSpaceOnUse">
<stop stop-color="#491572" stop-opacity="0.760417"/>
<stop offset="0.71875" stop-color="#AF4CEC" stop-opacity="0"/>
</linearGradient>
<linearGradient id="paint92_linear_15_146" x1="173.805" y1="28.7294" x2="173.805" y2="69.647" gradientUnits="userSpaceOnUse">
<stop stop-color="#491572" stop-opacity="0.760417"/>
<stop offset="0.71875" stop-color="#AF4CEC" stop-opacity="0"/>
</linearGradient>
<linearGradient id="paint93_linear_15_146" x1="337.591" y1="28.7294" x2="337.591" y2="69.647" gradientUnits="userSpaceOnUse">
<stop stop-color="#491572" stop-opacity="0.760417"/>
<stop offset="0.71875" stop-color="#AF4CEC" stop-opacity="0"/>
</linearGradient>
<linearGradient id="paint94_linear_15_146" x1="501.377" y1="28.7294" x2="501.377" y2="69.647" gradientUnits="userSpaceOnUse">
<stop stop-color="#491572" stop-opacity="0.760417"/>
<stop offset="0.71875" stop-color="#AF4CEC" stop-opacity="0"/>
</linearGradient>
<linearGradient id="paint95_linear_15_146" x1="639.899" y1="28.7294" x2="639.899" y2="69.647" gradientUnits="userSpaceOnUse">
<stop stop-color="#491572" stop-opacity="0.760417"/>
<stop offset="0.71875" stop-color="#AF4CEC" stop-opacity="0"/>
</linearGradient>
<clipPath id="clip0_15_146">
<rect width="717" height="296" fill="white"/>
</clipPath>
</defs>
</svg>
